<svg id="Layer_1" enable-background="new 0 0 512 512" height="512" viewBox="0 0 512 512" width="512" xmlns="http://www.w3.org/2000/svg"><path clip-rule="evenodd" d="m62.843 98.364 138.32 138.38c30.168 30.11 79.482 30.136 109.675 0l138.32-138.38c1.393-1.393 1.19-3.687-.426-4.814-14.108-9.839-31.273-15.672-49.763-15.672h-285.936c-18.491 0-35.656 5.834-49.764 15.672-1.616 1.127-1.819 3.421-.426 4.814zm-36.964 66.667c0-14.54 3.605-28.278 9.955-40.353.993-1.889 3.51-2.271 5.019-.762l136.569 136.569c43.247 43.31 113.885 43.335 157.158 0l136.569-136.569c1.509-1.509 4.026-1.127 5.019.762 6.349 12.075 9.955 25.814 9.955 40.353v181.937c0 48.093-39.121 87.154-87.154 87.154h-285.936c-48.032 0-87.154-39.061-87.154-87.154z" fill-rule="evenodd"/></svg>