<svg width="476" height="514" viewBox="0 0 476 514" fill="none" xmlns="http://www.w3.org/2000/svg">
<path d="M475.268 268.432C475.268 288.842 472.513 308.129 467.002 326.294C461.695 344.255 454.042 360.583 444.041 375.279C434.244 389.974 422.304 402.833 408.221 413.854C394.342 424.875 378.83 433.55 361.686 439.877L454.756 513.66H339.336L262.798 452.123H184.423C158.094 452.123 133.704 447.633 111.253 438.652C88.8018 429.468 69.4121 416.711 53.084 400.383C36.7559 384.055 23.8975 364.666 14.5088 342.214C5.32422 319.763 0.731934 295.169 0.731934 268.432V184.546C0.731934 158.013 5.32422 133.521 14.5088 111.069C23.8975 88.4141 36.7559 69.0244 53.084 52.9004C69.4121 36.5723 88.8018 23.8159 111.253 14.6313C133.704 5.44678 158.094 0.854492 184.423 0.854492H292.189C318.518 0.854492 342.806 5.44678 365.053 14.6313C387.504 23.8159 406.894 36.5723 423.222 52.9004C439.55 69.0244 452.307 88.4141 461.491 111.069C470.676 133.521 475.268 158.013 475.268 184.546V268.432ZM395.668 184.546C395.668 168.83 393.117 154.645 388.015 141.991C383.116 129.132 376.075 118.213 366.89 109.232C357.91 100.048 346.99 93.0063 334.132 88.1079C321.478 83.0054 307.497 80.4541 292.189 80.4541H184.423C168.912 80.4541 154.727 83.0054 141.868 88.1079C129.214 93.0063 118.294 100.048 109.11 109.232C99.9253 118.213 92.7817 129.132 87.6792 141.991C82.7808 154.645 80.3315 168.83 80.3315 184.546V268.432C80.3315 284.147 82.7808 298.435 87.6792 311.293C92.7817 323.947 99.9253 334.867 109.11 344.051C118.294 353.032 129.214 360.073 141.868 365.176C154.727 370.074 168.912 372.523 184.423 372.523H291.577C307.088 372.523 321.171 370.074 333.826 365.176C346.684 360.073 357.706 353.032 366.89 344.051C376.075 334.867 383.116 323.947 388.015 311.293C393.117 298.435 395.668 284.147 395.668 268.432V184.546Z" fill="white"/>
</svg>
