<svg width="344" height="344" viewBox="0 0 344 344" fill="none" xmlns="http://www.w3.org/2000/svg">
<path d="M147.012 221.343L146.379 225.217L145.705 229.379L139.513 267.336H129.392L135.577 229.379L136.258 225.217L136.891 221.343H147.012Z" fill="#202020"/>
<path d="M145.546 221.343C145.01 225.189 144.439 229.028 143.861 232.86L142.072 244.371L140.201 255.86L139.237 261.598L138.233 267.336L139.059 261.571L139.919 255.812L141.728 244.309L143.599 232.819C144.212 228.987 144.858 225.162 145.546 221.343Z" fill="#C7C7C7"/>
<path d="M146.379 225.217L145.705 229.379H135.577L136.258 225.217H146.379Z" fill="#C7C7C7"/>
<path d="M196.988 221.343L197.621 225.217L198.295 229.379L204.487 267.336H214.608L208.423 229.379L207.742 225.217L207.109 221.343H196.988Z" fill="#202020"/>
<path d="M198.488 221.343C199.018 225.189 199.596 229.028 200.174 232.86L201.955 244.371L203.827 255.86L204.797 261.598L205.801 267.336L204.976 261.571L204.116 255.812L202.327 244.309L200.456 232.819C199.816 228.987 199.169 225.162 198.488 221.343Z" fill="#C7C7C7"/>
<path d="M197.621 225.217H207.742L208.423 229.379H198.295L197.621 225.217Z" fill="#C7C7C7"/>
<path d="M146.64 210.666H138.618L139.616 203.18H145.643L146.64 210.666Z" fill="#C7C7C7"/>
<path d="M149.999 199.147C150.717 195.079 148.002 191.2 143.934 190.482C139.867 189.764 135.988 192.479 135.27 196.547C134.552 200.614 137.267 204.493 141.334 205.211C145.402 205.929 149.281 203.214 149.999 199.147Z" fill="#3F3F3F"/>
<path d="M148.166 199.148C148.89 196.09 146.999 193.024 143.941 192.3C140.883 191.575 137.817 193.467 137.093 196.524C136.368 199.582 138.26 202.648 141.317 203.373C144.375 204.097 147.441 202.206 148.166 199.148Z" fill="#D7D7D7"/>
<path d="M147.383 197.504C147.33 196.826 147.138 196.166 146.819 195.566C146.499 194.966 146.059 194.438 145.526 194.016C144.989 193.599 144.373 193.296 143.716 193.124C143.058 192.953 142.372 192.917 141.7 193.018C141.033 193.123 140.396 193.368 139.829 193.735C139.263 194.102 138.78 194.585 138.412 195.151C138.023 195.757 137.769 196.438 137.666 197.15C137.562 197.862 137.613 198.588 137.813 199.279C138.155 200.473 138.953 201.484 140.035 202.093C141.091 202.692 142.33 202.883 143.517 202.63C144.665 202.384 145.694 201.753 146.434 200.841C147.164 199.94 147.586 198.828 147.638 197.669C147.638 197.621 147.638 197.573 147.59 197.573C147.542 197.573 147.542 197.614 147.542 197.669C147.515 198.138 147.425 198.601 147.273 199.045C147.115 199.482 146.905 199.897 146.647 200.284C146.376 200.658 146.062 201 145.711 201.302C145.351 201.603 144.956 201.859 144.535 202.066C143.929 202.351 143.271 202.507 142.602 202.523C141.932 202.54 141.267 202.417 140.648 202.162C140.027 201.899 139.47 201.504 139.017 201.005C138.563 200.507 138.223 199.915 138.02 199.272C137.811 198.612 137.747 197.914 137.832 197.226C137.918 196.539 138.151 195.878 138.515 195.289C138.867 194.73 139.334 194.252 139.886 193.889C140.438 193.526 141.061 193.285 141.714 193.183C142.596 193.043 143.499 193.144 144.329 193.475C145.158 193.805 145.883 194.353 146.427 195.062C146.689 195.427 146.901 195.825 147.06 196.245C147.213 196.672 147.315 197.115 147.363 197.566C147.363 197.566 147.383 197.525 147.383 197.504Z" fill="#202020"/>
<path d="M146.716 197.511C146.667 196.93 146.498 196.366 146.221 195.854C145.944 195.341 145.565 194.891 145.106 194.532C144.646 194.178 144.12 193.919 143.559 193.771C142.998 193.622 142.413 193.586 141.838 193.665C141.263 193.751 140.713 193.957 140.223 194.27C139.734 194.583 139.316 194.996 138.997 195.481C138.657 196 138.433 196.585 138.338 197.197C138.243 197.809 138.28 198.435 138.446 199.031C138.588 199.548 138.832 200.031 139.162 200.453C139.493 200.875 139.905 201.226 140.373 201.488C141.292 202.013 142.374 202.175 143.407 201.942C144.403 201.727 145.295 201.175 145.932 200.38C146.563 199.597 146.927 198.633 146.97 197.628C146.97 197.587 146.97 197.545 146.929 197.545C146.888 197.545 146.874 197.58 146.874 197.628C146.818 198.434 146.547 199.211 146.09 199.877C145.633 200.544 145.006 201.076 144.274 201.419C143.753 201.672 143.184 201.812 142.605 201.829C142.026 201.845 141.45 201.738 140.916 201.515C140.378 201.288 139.897 200.946 139.505 200.513C139.113 200.081 138.819 199.568 138.646 199.011C138.467 198.439 138.415 197.835 138.494 197.241C138.572 196.647 138.779 196.077 139.1 195.571C139.403 195.093 139.806 194.688 140.281 194.381C140.756 194.075 141.292 193.875 141.852 193.796C142.601 193.684 143.366 193.773 144.069 194.054C144.772 194.334 145.389 194.796 145.856 195.392C146.081 195.702 146.265 196.04 146.406 196.396C146.535 196.762 146.625 197.14 146.675 197.525L146.716 197.511Z" fill="#202020"/>
<path d="M146.049 197.518C145.999 197.034 145.852 196.566 145.615 196.141C145.378 195.717 145.058 195.345 144.673 195.048C143.899 194.46 142.926 194.198 141.962 194.319C141.479 194.382 141.016 194.548 140.602 194.804C140.188 195.06 139.833 195.401 139.561 195.805C139.266 196.241 139.069 196.735 138.982 197.253C138.896 197.772 138.922 198.304 139.059 198.811C139.174 199.254 139.378 199.669 139.659 200.031C139.939 200.393 140.289 200.694 140.689 200.917C141.478 201.358 142.402 201.49 143.283 201.288C144.132 201.091 144.886 200.604 145.416 199.912C145.94 199.248 146.247 198.438 146.296 197.594C146.296 197.552 146.296 197.518 146.248 197.518C146.24 197.519 146.232 197.521 146.225 197.525C146.218 197.529 146.211 197.534 146.206 197.541C146.201 197.547 146.197 197.555 146.195 197.562C146.193 197.57 146.192 197.579 146.193 197.587C146.14 198.264 145.91 198.915 145.526 199.475C145.142 200.035 144.617 200.485 144.005 200.779C143.567 200.996 143.087 201.116 142.598 201.133C142.11 201.15 141.623 201.062 141.171 200.875C140.714 200.686 140.304 200.398 139.973 200.032C139.641 199.665 139.394 199.23 139.251 198.756C139.109 198.274 139.072 197.767 139.143 197.27C139.214 196.772 139.392 196.296 139.664 195.874C139.924 195.48 140.265 195.147 140.665 194.898C141.066 194.649 141.515 194.489 141.983 194.429C142.601 194.356 143.228 194.429 143.813 194.642C144.402 194.865 144.918 195.246 145.306 195.743C145.497 195.996 145.655 196.274 145.773 196.568C145.889 196.87 145.97 197.184 146.014 197.504C146.014 197.504 146.056 197.525 146.049 197.518Z" fill="#202020"/>
<path d="M145.388 197.525C145.287 196.749 144.884 196.044 144.267 195.564C143.649 195.102 142.88 194.891 142.113 194.972C141.723 195.018 141.347 195.145 141.009 195.345C140.671 195.545 140.379 195.814 140.152 196.135C139.906 196.488 139.738 196.89 139.66 197.314C139.581 197.738 139.594 198.173 139.698 198.591C139.79 198.959 139.956 199.304 140.187 199.605C140.417 199.906 140.708 200.155 141.04 200.339C141.694 200.701 142.459 200.806 143.186 200.634C143.878 200.467 144.492 200.069 144.927 199.506C145.341 198.956 145.581 198.295 145.615 197.607C145.616 197.6 145.616 197.593 145.614 197.586C145.612 197.579 145.609 197.572 145.604 197.566C145.6 197.56 145.594 197.556 145.588 197.552C145.581 197.549 145.574 197.546 145.567 197.545C145.567 197.545 145.519 197.545 145.512 197.6C145.471 198.145 145.291 198.671 144.99 199.127C144.689 199.584 144.277 199.955 143.792 200.208C143.438 200.393 143.047 200.499 142.648 200.518C142.249 200.537 141.85 200.469 141.48 200.318C141.105 200.163 140.77 199.926 140.499 199.623C140.229 199.321 140.03 198.961 139.918 198.57C139.808 198.179 139.784 197.768 139.849 197.367C139.913 196.965 140.063 196.583 140.29 196.245C140.503 195.934 140.78 195.673 141.103 195.48C141.426 195.286 141.787 195.165 142.161 195.124C142.651 195.079 143.144 195.143 143.606 195.309C144.071 195.481 144.482 195.773 144.796 196.156C144.948 196.358 145.075 196.577 145.175 196.809C145.273 197.051 145.344 197.302 145.388 197.559V197.525Z" fill="#202020"/>
<path d="M205.21 210.666H197.181L198.178 203.18H204.212L205.21 210.666Z" fill="#C7C7C7"/>
<path d="M208.713 198.493C209.332 194.404 206.52 190.587 202.431 189.968C198.342 189.348 194.525 192.161 193.905 196.25C193.286 200.339 196.098 204.156 200.187 204.775C204.276 205.395 208.093 202.582 208.713 198.493Z" fill="#3F3F3F"/>
<path d="M206.815 198.691C207.289 195.584 205.154 192.682 202.048 192.208C198.941 191.735 196.039 193.869 195.565 196.975C195.092 200.082 197.226 202.984 200.332 203.458C203.439 203.931 206.341 201.797 206.815 198.691Z" fill="#D7D7D7"/>
<path d="M205.953 197.504C205.899 196.826 205.706 196.167 205.386 195.567C205.067 194.967 204.627 194.439 204.095 194.016C203.558 193.6 202.942 193.296 202.285 193.125C201.627 192.953 200.942 192.917 200.27 193.018C199.603 193.123 198.965 193.368 198.399 193.735C197.832 194.102 197.349 194.585 196.981 195.151C196.59 195.755 196.334 196.437 196.23 197.15C196.127 197.862 196.179 198.589 196.383 199.279C196.722 200.474 197.521 201.486 198.605 202.093C199.66 202.693 200.899 202.884 202.086 202.63C203.234 202.384 204.264 201.753 205.003 200.841C205.734 199.94 206.156 198.828 206.207 197.669C206.207 197.621 206.207 197.573 206.159 197.573C206.111 197.573 206.111 197.614 206.104 197.669C206.077 198.137 205.989 198.6 205.843 199.045C205.685 199.483 205.472 199.899 205.21 200.284C204.672 201.05 203.944 201.664 203.098 202.066C202.494 202.353 201.836 202.51 201.168 202.526C200.499 202.543 199.835 202.419 199.217 202.162C198.595 201.899 198.038 201.505 197.583 201.006C197.128 200.507 196.787 199.916 196.582 199.272C196.374 198.611 196.312 197.913 196.398 197.226C196.485 196.538 196.719 195.878 197.084 195.289C197.436 194.73 197.904 194.252 198.456 193.889C199.008 193.526 199.631 193.285 200.284 193.183C201.165 193.043 202.069 193.144 202.898 193.475C203.728 193.805 204.453 194.353 204.996 195.062C205.255 195.428 205.468 195.826 205.629 196.245C205.78 196.672 205.88 197.115 205.925 197.566C205.925 197.566 205.953 197.525 205.953 197.504Z" fill="#202020"/>
<path d="M205.285 197.511C205.233 196.931 205.063 196.368 204.787 195.856C204.51 195.344 204.132 194.893 203.676 194.532C203.215 194.178 202.689 193.919 202.128 193.771C201.567 193.622 200.983 193.586 200.408 193.665C199.832 193.75 199.28 193.955 198.789 194.269C198.298 194.582 197.879 194.995 197.559 195.481C197.22 196 196.995 196.585 196.9 197.197C196.805 197.809 196.842 198.435 197.009 199.031C197.151 199.548 197.394 200.031 197.725 200.453C198.056 200.875 198.467 201.226 198.935 201.488C199.855 202.012 200.937 202.174 201.969 201.942C202.968 201.728 203.862 201.177 204.501 200.38C205.129 199.595 205.493 198.632 205.54 197.628C205.54 197.587 205.54 197.545 205.492 197.545C205.444 197.545 205.444 197.58 205.437 197.628C205.382 198.434 205.112 199.21 204.656 199.877C204.2 200.543 203.574 201.076 202.843 201.419C202.322 201.672 201.754 201.812 201.175 201.829C200.596 201.845 200.02 201.738 199.486 201.515C198.946 201.289 198.463 200.948 198.07 200.515C197.676 200.082 197.382 199.569 197.208 199.011C197.032 198.439 196.981 197.835 197.06 197.241C197.138 196.648 197.344 196.078 197.662 195.571C197.967 195.095 198.37 194.69 198.845 194.383C199.32 194.077 199.855 193.877 200.414 193.796C201.166 193.681 201.934 193.769 202.64 194.049C203.346 194.33 203.965 194.793 204.432 195.392C204.659 195.701 204.845 196.039 204.983 196.396C205.118 196.76 205.208 197.139 205.251 197.525C205.257 197.525 205.264 197.524 205.27 197.521C205.276 197.519 205.281 197.515 205.285 197.511Z" fill="#202020"/>
<path d="M204.618 197.518C204.565 197.035 204.417 196.568 204.18 196.144C203.944 195.719 203.625 195.347 203.242 195.048C202.468 194.461 201.495 194.199 200.531 194.319C200.051 194.384 199.59 194.551 199.179 194.807C198.767 195.063 198.415 195.403 198.144 195.805C197.85 196.241 197.653 196.735 197.565 197.253C197.477 197.772 197.501 198.303 197.635 198.811C197.754 199.254 197.96 199.668 198.241 200.029C198.522 200.391 198.873 200.692 199.272 200.917C200.059 201.357 200.981 201.49 201.859 201.288C202.71 201.091 203.466 200.604 203.999 199.912C204.525 199.249 204.83 198.439 204.873 197.594C204.873 197.552 204.873 197.518 204.831 197.518C204.823 197.519 204.815 197.521 204.808 197.525C204.801 197.529 204.795 197.534 204.789 197.541C204.784 197.547 204.781 197.555 204.778 197.562C204.776 197.57 204.775 197.579 204.776 197.587C204.722 198.263 204.491 198.914 204.107 199.474C203.723 200.034 203.2 200.484 202.588 200.779C202.15 200.996 201.67 201.116 201.182 201.133C200.693 201.15 200.206 201.062 199.754 200.875C199.297 200.686 198.888 200.398 198.556 200.032C198.224 199.665 197.977 199.23 197.834 198.756C197.692 198.274 197.655 197.767 197.726 197.27C197.798 196.772 197.975 196.296 198.247 195.874C198.505 195.48 198.845 195.146 199.244 194.897C199.643 194.647 200.092 194.488 200.559 194.429C201.179 194.355 201.809 194.428 202.396 194.642C202.985 194.865 203.501 195.246 203.889 195.743C204.08 195.996 204.238 196.274 204.357 196.569C204.466 196.872 204.547 197.185 204.597 197.504C204.603 197.511 204.61 197.516 204.618 197.518Z" fill="#202020"/>
<path d="M203.951 197.525C203.903 197.141 203.78 196.77 203.589 196.433C203.398 196.097 203.142 195.801 202.836 195.564C202.218 195.103 201.449 194.891 200.683 194.972C200.292 195.015 199.914 195.14 199.576 195.341C199.238 195.542 198.947 195.812 198.722 196.135C198.475 196.488 198.307 196.89 198.229 197.314C198.151 197.738 198.164 198.173 198.268 198.591C198.359 198.959 198.525 199.304 198.756 199.605C198.987 199.906 199.277 200.155 199.609 200.339C200.261 200.7 201.024 200.806 201.749 200.634C202.442 200.466 203.057 200.068 203.497 199.506C203.911 198.956 204.15 198.295 204.185 197.607C204.187 197.6 204.187 197.593 204.186 197.586C204.185 197.579 204.183 197.572 204.179 197.567C204.175 197.561 204.169 197.556 204.163 197.552C204.157 197.548 204.15 197.546 204.143 197.545C204.129 197.545 204.115 197.551 204.104 197.561C204.094 197.572 204.088 197.586 204.088 197.6C204.038 198.148 203.848 198.674 203.536 199.127C203.224 199.58 202.8 199.945 202.306 200.187C201.953 200.371 201.564 200.477 201.166 200.496C200.768 200.515 200.371 200.447 200.002 200.297C199.626 200.143 199.291 199.905 199.02 199.603C198.75 199.3 198.551 198.94 198.44 198.55C198.33 198.158 198.306 197.748 198.37 197.346C198.434 196.945 198.585 196.562 198.811 196.224C199.024 195.913 199.301 195.652 199.624 195.459C199.947 195.265 200.308 195.144 200.683 195.103C201.17 195.059 201.661 195.122 202.121 195.289C202.586 195.458 202.998 195.751 203.311 196.135C203.467 196.335 203.596 196.555 203.696 196.789C203.794 197.03 203.865 197.282 203.909 197.538C203.909 197.538 203.958 197.532 203.951 197.525Z" fill="#202020"/>
<path d="M222.43 206.854H121.563V226.146H222.43V206.854Z" fill="#3F3F3F"/>
<path d="M142.299 206.854L134.979 226.146H121.948L129.268 206.854H142.299Z" fill="#202020"/>
<path d="M169 206.854L161.68 226.146H148.649L155.97 206.854H169Z" fill="#202020"/>
<path d="M195.695 206.854L188.381 226.146H175.351L182.671 206.854H195.695Z" fill="#202020"/>
<path d="M222.403 206.854L215.082 226.146H202.052L209.372 206.854H222.403Z" fill="#202020"/>
<path d="M220.394 243.985H123.606V256.197H220.394V243.985Z" fill="#3F3F3F"/>
<path d="M143.496 243.985L136.478 256.191H123.978L131.002 243.985H143.496Z" fill="#202020"/>
<path d="M169.124 243.985L162.1 256.191H149.592L156.616 243.985H169.124Z" fill="#202020"/>
<path d="M194.738 243.985L187.714 256.191H175.213L182.237 243.985H194.738Z" fill="#202020"/>
<path d="M220.359 243.985L213.335 256.191H200.834L207.858 243.985H220.359Z" fill="#202020"/>
<path d="M321.846 114.972H243.979C243.979 114.972 251.698 93.8845 263.58 93.8845C275.461 93.8845 279.183 108.436 279.183 108.436C279.183 108.436 287.199 100.531 293.79 100.531C300.381 100.531 306.098 110.981 306.098 110.981C306.098 110.981 315.407 105.36 321.846 114.972Z" fill="#202020"/>
<path d="M113.155 65.5113H76.767C76.767 65.5113 84.8923 53.7328 91.3044 53.7328C97.7166 53.7328 99.6017 61.5829 99.6017 61.5829C99.6017 61.5829 104.122 57.9227 108.312 58.5763C112.502 59.2299 113.155 65.5113 113.155 65.5113Z" fill="#202020"/>
<path d="M309.449 150.335H273.06C273.06 150.335 281.192 138.556 287.598 138.556C294.003 138.556 295.895 146.406 295.895 146.406C295.895 146.406 300.415 142.739 304.605 143.4C308.795 144.06 309.449 150.335 309.449 150.335Z" fill="#202020"/>
<path d="M93.0382 95.0334H22.1536C22.1536 95.0334 31.8612 73.3614 42.2432 72.0061C52.6251 70.6507 57.5924 88.1053 57.5924 88.1053C57.5924 88.1053 64.2936 81.9133 69.5568 81.9133C74.82 81.9133 78.886 90.0385 78.886 90.0385C78.886 90.0385 89.44 84.4933 93.0382 95.0334Z" fill="#202020"/>
<path d="M24.7061 267.508L61.1838 267.343L97.6685 267.281L170.624 267.164L243.586 267.281L280.064 267.343L316.542 267.508L280.064 267.673L243.586 267.735L170.624 267.852L97.6685 267.735L61.1838 267.673L24.7061 267.508Z" fill="#263238"/>
<path d="M172 321.729C251.828 321.729 316.542 314.186 316.542 304.88C316.542 295.575 251.828 288.031 172 288.031C92.1717 288.031 27.4581 295.575 27.4581 304.88C27.4581 314.186 92.1717 321.729 172 321.729Z" fill="#202020"/>
<path d="M190.899 308.024C192.33 308.506 233.294 308.65 234.863 307.667C235.461 307.295 235.826 301.33 236.067 294.113C236.122 292.551 236.163 290.941 236.204 289.297L239.52 267.453L212.138 267.274L209.551 289.132L209.654 293.948C209.654 293.948 193.947 300.91 192.344 302.17C190.741 303.429 189.475 307.536 190.899 308.024Z" fill="#EB9481"/>
<path d="M190.899 308.025C192.33 308.506 233.294 308.651 234.863 307.667C235.585 307.213 235.984 298.503 236.204 289.304L209.551 289.139L209.654 293.955C209.654 293.955 193.947 300.917 192.344 302.177C190.741 303.436 189.475 307.536 190.899 308.025Z" fill="#D7D7D7"/>
<path d="M190.899 308.024C192.33 308.506 233.294 308.65 234.863 307.667C235.461 307.295 235.826 301.33 236.067 294.113L209.654 293.941C209.654 293.941 193.947 300.904 192.344 302.163C190.741 303.422 189.475 307.536 190.899 308.024Z" fill="#317E9B"/>
<path d="M191.498 306.387C198.378 306.243 226.077 306.304 232.874 306.683C232.929 306.683 232.929 306.724 232.874 306.731C226.07 307.02 198.357 306.731 191.491 306.497C191.347 306.49 191.353 306.387 191.498 306.387Z" fill="#263238"/>
<path d="M194.986 300.697C195.754 300.676 196.518 300.815 197.229 301.106C197.94 301.398 198.582 301.835 199.114 302.39C200.075 303.373 200.622 304.689 200.641 306.064C200.641 306.105 200.559 306.105 200.552 306.064C200.327 304.708 199.67 303.461 198.678 302.51C197.686 301.558 196.412 300.954 195.048 300.787C195.036 300.795 195.021 300.798 195.007 300.795C194.993 300.793 194.981 300.785 194.972 300.773C194.964 300.761 194.961 300.746 194.964 300.732C194.966 300.718 194.974 300.705 194.986 300.697Z" fill="#263238"/>
<path d="M206.992 294.615C209.744 294.615 212.922 295.572 214.622 297.821C214.69 297.911 214.567 298 214.484 297.959C212.075 296.691 209.538 295.684 206.916 294.952C206.871 294.942 206.832 294.915 206.808 294.876C206.783 294.838 206.775 294.791 206.785 294.746C206.795 294.701 206.823 294.662 206.861 294.638C206.9 294.613 206.947 294.605 206.992 294.615Z" fill="#263238"/>
<path d="M204.866 295.434C207.618 295.434 210.796 296.39 212.496 298.647C212.565 298.729 212.441 298.826 212.358 298.778C209.951 297.508 207.413 296.502 204.79 295.778C204.751 295.762 204.719 295.733 204.7 295.695C204.681 295.658 204.675 295.615 204.684 295.574C204.693 295.533 204.716 295.497 204.749 295.471C204.783 295.445 204.824 295.432 204.866 295.434Z" fill="#263238"/>
<path d="M202.74 296.26C205.492 296.225 208.67 297.209 210.377 299.466C210.439 299.548 210.315 299.645 210.232 299.603C207.826 298.329 205.289 297.321 202.664 296.597C202.62 296.587 202.581 296.559 202.556 296.521C202.532 296.482 202.523 296.435 202.533 296.39C202.544 296.346 202.571 296.307 202.61 296.282C202.648 296.258 202.695 296.25 202.74 296.26Z" fill="#263238"/>
<path d="M200.614 297.078C203.366 297.078 206.551 298.028 208.251 300.284C208.313 300.367 208.189 300.463 208.106 300.422C205.701 299.147 203.163 298.139 200.538 297.416C200.494 297.406 200.455 297.378 200.43 297.339C200.406 297.301 200.397 297.254 200.408 297.209C200.418 297.164 200.445 297.126 200.484 297.101C200.522 297.077 200.569 297.068 200.614 297.078Z" fill="#263238"/>
<path d="M231.168 300.154C234.257 300.154 234.23 304.97 231.168 304.97C228.106 304.97 228.058 300.133 231.168 300.154Z" fill="#263238"/>
<path d="M204.253 291.299C205.726 293.219 207.982 294.436 209.936 295.792C209.982 295.818 210.033 295.833 210.086 295.835C210.139 295.838 210.191 295.828 210.239 295.807C210.288 295.785 210.33 295.753 210.364 295.712C210.397 295.671 210.42 295.623 210.432 295.572C210.442 295.574 210.453 295.574 210.464 295.571C210.475 295.568 210.484 295.562 210.492 295.555C210.5 295.548 210.507 295.538 210.51 295.528C210.514 295.518 210.516 295.507 210.514 295.496C210.323 292.974 209.471 290.546 208.044 288.458C207.191 287.254 205.444 286.125 204.047 287.274C202.65 288.423 203.387 290.185 204.253 291.299ZM204.13 289.022C204.419 286.036 207.109 288.334 207.7 289.249C208.073 289.846 208.406 290.466 208.698 291.107C209.277 292.44 209.789 293.802 210.232 295.186C209.317 294.457 208.34 293.81 207.398 293.122C206.276 292.304 203.978 290.673 204.13 289.022Z" fill="#263238"/>
<path d="M220.284 293.776C220.077 291.98 218.027 291.588 216.582 291.856C214.108 292.375 211.811 293.533 209.923 295.214C209.913 295.22 209.904 295.229 209.899 295.239C209.893 295.249 209.89 295.261 209.89 295.272C209.89 295.284 209.893 295.296 209.899 295.306C209.904 295.316 209.913 295.325 209.923 295.331C209.894 295.375 209.876 295.426 209.87 295.479C209.865 295.531 209.872 295.585 209.892 295.634C209.911 295.683 209.943 295.727 209.983 295.762C210.023 295.796 210.071 295.821 210.122 295.833C212.475 296.205 214.938 296.899 217.339 296.521C218.743 296.328 220.483 295.475 220.284 293.776ZM213.81 295.668C212.647 295.517 211.505 295.303 210.37 295.193C211.67 294.54 212.936 293.817 214.298 293.315C214.953 293.055 215.624 292.839 216.307 292.668C217.367 292.427 220.903 292.627 219.059 294.98C217.979 296.273 215.193 295.84 213.81 295.668Z" fill="#263238"/>
<path d="M279.768 166.455C279.768 166.455 247.962 220.559 247.109 224.357C245.802 230.198 238.853 287.839 238.853 287.839L205.76 287.247C205.76 287.247 211.464 236.417 216.865 219.678C220.759 207.618 248.822 167.617 248.822 167.617L279.768 166.455Z" fill="#37474F"/>
<path d="M208.78 282.169C213.535 282.135 230.377 281.949 236.7 282.534C236.712 282.534 236.725 282.539 236.734 282.548C236.743 282.557 236.748 282.569 236.748 282.582C236.748 282.595 236.743 282.607 236.734 282.616C236.725 282.625 236.712 282.63 236.7 282.63C234.525 282.94 213.535 282.451 208.78 282.3C208.77 282.304 208.759 282.304 208.748 282.303C208.738 282.301 208.727 282.297 208.719 282.29C208.71 282.284 208.703 282.276 208.698 282.266C208.693 282.256 208.69 282.246 208.69 282.235C208.69 282.224 208.693 282.213 208.698 282.203C208.703 282.194 208.71 282.185 208.719 282.179C208.727 282.173 208.738 282.168 208.748 282.167C208.759 282.165 208.77 282.166 208.78 282.169Z" fill="#263238"/>
<path d="M274.34 171.422C272.276 174.69 270.054 177.889 267.921 181.13C265.788 184.37 263.669 187.618 261.571 190.886C257.383 197.408 253.292 203.99 249.297 210.631C247.36 213.688 245.7 216.911 244.336 220.263C243.094 223.632 242.162 227.107 241.55 230.645C240.896 234.202 240.47 237.787 240.071 241.371C239.64 245.187 239.213 249.003 238.791 252.819C237.92 260.617 237.048 268.428 236.177 276.253C236.067 277.209 235.963 278.172 235.867 279.128C235.867 279.273 236.101 279.3 236.122 279.128C237.092 271.368 237.904 263.587 238.791 255.812L240.112 244.24C240.518 240.642 240.91 237.043 241.488 233.459C242.004 229.934 242.784 226.452 243.82 223.043C244.955 219.51 246.48 216.116 248.368 212.922C252.2 206.311 256.259 199.809 260.319 193.328C264.378 186.847 268.54 180.256 272.826 173.837C273.349 173.046 273.886 172.255 274.436 171.477C274.512 171.415 274.381 171.36 274.34 171.422Z" fill="#263238"/>
<path d="M251.65 312.572C253.157 312.668 293.804 301.956 295.069 300.608C295.125 300.526 295.158 300.431 295.166 300.333C295.324 298.998 293.246 294.01 291.788 287.618C291.698 287.212 290.935 285.272 289.861 282.651C286.91 275.461 281.647 263.105 281.647 263.105L255.11 269.916L264.88 289.559L266.201 294.175C266.201 294.175 252.778 304.915 251.553 306.559C250.329 308.203 250.15 312.462 251.65 312.572Z" fill="#EB9481"/>
<path d="M251.65 312.572C253.157 312.668 293.804 301.956 295.07 300.608C295.125 300.526 295.158 300.431 295.166 300.333C295.324 298.998 293.246 294.01 291.788 287.618C291.698 287.212 290.935 285.272 289.861 282.651L264.887 289.531L266.208 294.147C266.208 294.147 252.785 304.887 251.56 306.531C250.336 308.176 250.15 312.462 251.65 312.572Z" fill="#D7D7D7"/>
<path d="M251.65 312.565C253.157 312.675 293.804 301.956 295.07 300.608C295.551 300.099 294.498 294.602 291.788 287.618L266.208 294.182C266.208 294.182 252.785 304.908 251.56 306.566C250.336 308.224 250.15 312.462 251.65 312.565Z" fill="#317E9B"/>
<path d="M251.808 310.831C258.413 308.946 285.231 301.956 291.905 300.587C291.96 300.587 291.967 300.587 291.905 300.635C285.403 302.644 258.53 309.421 251.829 310.955C251.698 310.976 251.67 310.873 251.808 310.831Z" fill="#263238"/>
<path d="M253.741 304.447C254.475 304.235 255.245 304.178 256.002 304.28C256.759 304.382 257.486 304.64 258.138 305.038C259.316 305.747 260.177 306.879 260.546 308.203C260.546 308.245 260.477 308.265 260.463 308.203C259.897 306.945 258.937 305.904 257.729 305.238C256.521 304.572 255.128 304.316 253.762 304.509C253.758 304.515 253.752 304.52 253.745 304.523C253.738 304.527 253.73 304.528 253.722 304.527C253.715 304.526 253.707 304.522 253.701 304.518C253.695 304.513 253.691 304.506 253.689 304.499C253.686 304.491 253.686 304.484 253.688 304.476C253.689 304.469 253.693 304.462 253.699 304.456C253.704 304.451 253.711 304.447 253.719 304.445C253.726 304.444 253.734 304.444 253.741 304.447Z" fill="#263238"/>
<path d="M263.8 295.51C266.449 294.78 269.779 294.918 271.994 296.666C272.083 296.734 271.994 296.858 271.898 296.838C269.256 296.217 266.555 295.883 263.841 295.84C263.803 295.835 263.768 295.818 263.742 295.791C263.715 295.764 263.698 295.729 263.693 295.691C263.688 295.653 263.696 295.615 263.716 295.582C263.735 295.549 263.765 295.524 263.8 295.51Z" fill="#263238"/>
<path d="M261.956 296.844C264.605 296.115 267.935 296.253 270.15 298C270.239 298.069 270.15 298.193 270.047 298.172C267.404 297.565 264.702 297.244 261.99 297.216C261.941 297.221 261.892 297.205 261.854 297.174C261.816 297.142 261.792 297.097 261.787 297.047C261.783 296.998 261.798 296.949 261.83 296.911C261.861 296.873 261.907 296.849 261.956 296.844Z" fill="#263238"/>
<path d="M260.105 298.179C262.761 297.45 266.084 297.587 268.306 299.335C268.389 299.404 268.306 299.521 268.203 299.507C265.561 298.888 262.86 298.556 260.147 298.516C260.106 298.515 260.067 298.499 260.037 298.471C260.007 298.443 259.987 298.406 259.982 298.365C259.977 298.325 259.987 298.284 260.01 298.25C260.032 298.215 260.066 298.19 260.105 298.179Z" fill="#263238"/>
<path d="M258.261 299.507C260.91 298.785 264.24 298.922 266.456 300.67C266.545 300.739 266.456 300.856 266.359 300.835C263.716 300.222 261.016 299.893 258.303 299.851C258.257 299.857 258.211 299.844 258.175 299.815C258.139 299.787 258.116 299.745 258.11 299.7C258.105 299.654 258.118 299.608 258.146 299.572C258.174 299.536 258.216 299.513 258.261 299.507Z" fill="#263238"/>
<path d="M288.575 294.719C291.561 293.948 292.758 298.592 289.765 299.356C286.772 300.119 285.582 295.482 288.575 294.719Z" fill="#263238"/>
<path d="M260.305 292.999C262.224 294.478 264.715 295.063 266.944 295.895C266.995 295.909 267.049 295.911 267.101 295.9C267.152 295.89 267.201 295.867 267.243 295.835C267.284 295.802 267.317 295.76 267.34 295.712C267.362 295.663 267.372 295.611 267.371 295.558C267.382 295.558 267.393 295.555 267.403 295.549C267.413 295.544 267.421 295.536 267.427 295.526C267.433 295.517 267.437 295.506 267.438 295.495C267.439 295.483 267.437 295.472 267.433 295.462C266.605 293.067 265.163 290.931 263.249 289.27C262.121 288.327 260.14 287.673 259.08 289.146C258.021 290.618 259.19 292.139 260.305 292.999ZM259.617 290.831C259.135 287.866 262.321 289.414 263.126 290.143C263.64 290.623 264.12 291.138 264.564 291.685C265.467 292.823 266.31 294.008 267.089 295.235C266.015 294.767 264.908 294.395 263.821 293.962C262.513 293.453 259.878 292.462 259.61 290.831H259.617Z" fill="#263238"/>
<path d="M276.438 291.313C275.785 289.627 273.686 289.772 272.372 290.405C270.108 291.532 268.181 293.236 266.786 295.345C266.778 295.353 266.774 295.364 266.771 295.375C266.769 295.386 266.77 295.398 266.773 295.409C266.777 295.42 266.783 295.43 266.791 295.438C266.799 295.446 266.809 295.452 266.82 295.455C266.805 295.505 266.802 295.558 266.811 295.61C266.821 295.662 266.842 295.71 266.873 295.753C266.904 295.795 266.945 295.829 266.992 295.852C267.039 295.876 267.091 295.888 267.144 295.888C269.517 295.647 272.077 295.689 274.299 294.732C275.599 294.175 277.065 292.902 276.438 291.313ZM270.659 294.794C269.503 294.939 268.341 295.028 267.219 295.214C268.279 294.22 269.388 293.281 270.542 292.4C271.109 291.983 271.702 291.604 272.317 291.265C273.281 290.756 276.755 290.054 275.544 292.799C274.849 294.319 272.049 294.622 270.659 294.794Z" fill="#263238"/>
<path d="M263.064 288.272L292.799 280.47C292.799 280.47 264.33 224.446 264.591 220.58C264.798 217.14 285.444 187.088 286.607 181.46C288.472 172.248 283.986 164.019 279.638 158.928L248.884 167.597C248.884 167.597 251.333 172.915 255.833 176.272C255.833 176.272 236.507 208.54 236.012 219.162C235.516 229.785 263.064 288.272 263.064 288.272Z" fill="#37474F"/>
<path d="M262.5 282.768C266.806 281.536 265.554 281.832 269.882 280.642C272.001 280.064 285.919 276.259 287.983 276.06C288.031 276.06 288.052 276.129 287.983 276.149C286.084 277.002 272.104 280.566 269.978 281.103C265.63 282.204 266.861 281.839 262.5 282.899C262.451 282.906 262.417 282.768 262.5 282.768Z" fill="#263238"/>
<path d="M251.065 175.055C254.012 176.148 256.859 177.492 259.576 179.073C259.598 179.084 259.614 179.103 259.622 179.126C259.63 179.149 259.628 179.175 259.617 179.196C259.606 179.218 259.587 179.235 259.564 179.243C259.54 179.251 259.515 179.249 259.493 179.238C256.624 177.986 253.693 176.789 250.9 175.385C250.862 175.36 250.834 175.322 250.822 175.278C250.81 175.234 250.814 175.187 250.835 175.146C250.855 175.105 250.89 175.073 250.932 175.056C250.975 175.04 251.022 175.039 251.065 175.055Z" fill="#263238"/>
<path d="M254.677 174.298C254.895 174.838 255.079 175.392 255.227 175.956C255.389 176.396 255.461 176.864 255.441 177.332C255.432 177.348 255.419 177.361 255.403 177.37C255.387 177.379 255.369 177.384 255.351 177.384C255.333 177.384 255.315 177.379 255.3 177.37C255.284 177.361 255.271 177.348 255.262 177.332C255.004 176.921 254.809 176.473 254.684 176.004C254.498 175.488 254.299 174.979 254.133 174.463C254.016 174.133 254.56 173.968 254.677 174.298Z" fill="#263238"/>
<path d="M254.677 171.511C254.553 171.037 254.429 170.569 254.299 170.094C254.168 169.619 253.989 169.131 253.893 168.636C253.893 168.56 253.755 168.594 253.776 168.636C253.893 169.11 253.948 169.606 254.03 170.087C254.113 170.569 254.209 171.05 254.305 171.525C254.487 172.427 254.717 173.318 254.993 174.195C254.509 174.159 254.039 174.016 253.617 173.775C253.207 173.436 252.914 172.976 252.778 172.461C252.585 171.924 252.413 171.381 252.214 170.851C251.966 170.27 251.768 169.669 251.622 169.055C251.622 168.973 251.485 169.007 251.498 169.055C251.735 170.352 252.102 171.622 252.592 172.846C252.806 173.328 252.964 173.823 253.439 174.057C253.961 174.278 254.523 174.388 255.09 174.38C255.152 174.38 255.248 174.38 255.234 174.291C255.09 173.41 254.911 172.44 254.677 171.511Z" fill="#263238"/>
<path d="M255.186 177.346C254.017 179.458 252.682 181.474 251.43 183.538C250.178 185.602 249.049 187.611 247.907 189.675C245.609 193.844 243.476 198.123 241.529 202.471C240.566 204.623 239.649 206.799 238.777 209.001C237.871 211.191 237.124 213.445 236.541 215.743C235.994 218.037 235.891 220.414 236.239 222.747C236.674 225.139 237.29 227.494 238.082 229.792C239.676 235.056 241.616 240.209 243.889 245.217C243.965 245.382 244.24 245.258 244.178 245.086C242.554 240.504 240.876 235.936 239.41 231.326C238 226.827 236.321 222.162 237.099 217.38C237.533 215.087 238.187 212.84 239.053 210.672C239.887 208.443 240.777 206.239 241.722 204.061C243.593 199.761 245.685 195.585 247.831 191.422C249.029 189.09 250.288 186.785 251.505 184.46C252.723 182.134 253.92 179.726 255.289 177.47C255.331 177.339 255.248 177.284 255.186 177.346Z" fill="#263238"/>
<path d="M277.581 172.832C277.023 172.743 276.205 172.936 273.803 172.77C273.136 172.711 272.474 172.603 271.822 172.447C271.161 172.344 270.532 172.089 269.985 171.704C269.113 170.879 268.401 169.899 267.887 168.814C267.243 167.696 266.75 166.498 266.421 165.251C266.421 165.175 266.29 165.209 266.304 165.285C266.435 165.973 266.504 166.661 266.69 167.39C266.866 168.046 267.097 168.685 267.378 169.303C267.819 170.525 268.56 171.618 269.531 172.482C270.618 173.3 272.138 173.452 273.453 173.548C274.216 173.603 277.209 173.548 277.581 173.094C277.691 173.018 277.684 172.853 277.581 172.832Z" fill="#263238"/>
<path d="M285.417 274.072C281.665 266.449 277.996 258.777 274.409 251.058C270.822 243.339 267.341 235.562 263.965 227.728C263.031 225.889 262.287 223.959 261.743 221.969C261.282 219.788 261.956 217.841 262.878 215.867C264.593 212.286 266.511 208.806 268.623 205.444C270.687 202.059 272.916 198.749 275.097 195.426C277.352 192.171 279.42 188.79 281.289 185.299C282.981 181.921 283.924 178.323 283.442 174.539C282.961 170.755 281.33 167.26 279.59 163.937C279.129 163.063 278.654 162.196 278.214 161.315C278.179 161.253 278.076 161.315 278.117 161.377C280.057 164.859 281.922 168.512 282.83 172.385C283.298 174.316 283.442 176.311 283.257 178.288C283.015 180.285 282.453 182.229 281.592 184.047C279.975 187.597 277.718 190.872 275.592 194.126C273.466 197.38 271.203 200.765 269.084 204.136C266.931 207.511 264.954 210.995 263.16 214.573C262.376 216.176 261.516 217.848 261.323 219.644C261.117 221.619 261.825 223.504 262.589 225.286C265.891 233.032 269.373 240.717 272.909 248.361C276.445 256.005 280.112 263.676 283.834 271.271L285.21 274.14C285.3 274.299 285.472 274.189 285.417 274.072Z" fill="#263238"/>
<path d="M248.203 101.549C248.891 98.4046 252.386 91.2907 259.287 92.6805C269.139 94.6688 270.563 113.651 275.468 119.568C284.35 130.287 284.639 140.896 277.36 142.595C269.201 144.494 261.261 135.715 261.536 116.795C261.722 104.948 258.385 99.6981 256.032 100.049C253.679 100.4 252.379 103.393 252.379 103.393L248.203 101.549Z" fill="#263238"/>
<path d="M248.533 100.372C249.021 98.9057 249.684 97.5034 250.508 96.1961C251.335 94.8567 252.431 93.7039 253.728 92.8112C255.07 91.9043 256.663 91.4422 258.282 91.4902C259.888 91.5387 261.458 91.9754 262.857 92.763C264.222 93.5795 265.395 94.68 266.297 95.9897C267.189 97.2767 267.93 98.6617 268.506 100.118C269.599 103.004 270.365 106.004 270.79 109.062C270.04 106.106 269.07 103.21 267.887 100.4C267.273 99.0255 266.519 97.7183 265.637 96.4989C264.78 95.2952 263.678 94.287 262.403 93.5405C261.127 92.8125 259.695 92.3998 258.227 92.3365C256.774 92.2684 255.335 92.6427 254.099 93.4097C252.832 94.209 251.731 95.2464 250.859 96.4645C250.403 97.0726 249.982 97.7067 249.6 98.3633C249.214 98.9963 248.863 99.6774 248.533 100.372Z" fill="#263238"/>
<path d="M261.502 110.266C261.605 112.144 261.502 114.029 261.461 115.907C261.419 117.786 261.344 119.657 261.337 121.528C261.33 123.4 261.392 125.264 261.585 127.115C261.742 128.957 262.078 130.78 262.589 132.557C263.073 134.323 263.887 135.98 264.99 137.442C266.147 138.864 267.544 140.073 269.118 141.012C270.694 141.969 272.474 142.54 274.313 142.677C275.232 142.748 276.157 142.7 277.065 142.533C277.531 142.446 277.991 142.326 278.441 142.175C278.889 142.043 279.315 141.846 279.706 141.59C278.939 142.149 278.066 142.545 277.14 142.753C276.217 142.994 275.266 143.112 274.313 143.104C273.35 143.086 272.393 142.95 271.464 142.698C270.537 142.437 269.644 142.07 268.802 141.604C267.957 141.141 267.16 140.598 266.421 139.98L265.878 139.513L265.355 139.024C265 138.69 264.669 138.331 264.364 137.951C263.181 136.416 262.303 134.669 261.777 132.805C260.824 129.122 260.457 125.312 260.69 121.515C260.745 119.629 260.89 117.751 261.055 115.88C261.22 114.008 261.44 112.144 261.502 110.266Z" fill="#263238"/>
<path d="M247.639 101.604C247.529 100.73 248.058 99.5398 248.609 99.3265C249.159 99.1133 253.549 100.524 254.01 101.576C254.471 102.629 252.696 103.75 252.696 103.75L247.639 101.604Z" fill="#317E9B"/>
<path d="M252.895 132.591C250.191 136.451 230.638 152.42 219.974 153.011C215.158 153.273 196.321 151.222 192.124 149.496C186.971 147.376 197.16 134.614 200.38 135.158C204.412 135.846 218.708 137.352 221.557 137.428C226.125 137.545 240.133 129.86 249.565 127.858C254.443 126.833 254.987 129.619 252.895 132.591Z" fill="#EB9481"/>
<path d="M252.682 133.321C249.696 138.529 239.156 147.459 239.156 147.459L237.36 144.143L231.416 133.197C231.416 133.197 241.405 129.22 248.031 127.287C248.809 127.048 249.605 126.873 250.411 126.764C254.691 126.214 255.248 128.849 252.682 133.321Z" fill="#3F3F3F"/>
<path d="M252.682 133.321C249.696 138.529 239.156 147.459 239.156 147.459L237.36 144.143L236.135 141.886L231.409 133.204C231.409 133.204 241.405 129.213 248.031 127.28C248.81 127.048 249.606 126.875 250.411 126.764C250.496 126.758 250.581 126.758 250.666 126.764C254.711 126.324 255.207 128.938 252.682 133.321Z" fill="#3F3F3F"/>
<path d="M240.222 130.507C240.451 131.456 240.451 132.447 240.222 133.396C239.993 132.447 239.993 131.456 240.222 130.507ZM237.394 136.176C236.91 136.168 236.426 136.226 235.957 136.348C236.427 136.466 236.91 136.524 237.394 136.52C237.881 136.524 238.367 136.466 238.839 136.348C238.367 136.226 237.882 136.168 237.394 136.176ZM252.008 128.099C251.52 128.091 251.035 128.149 250.563 128.271C251.035 128.392 251.52 128.45 252.008 128.443C252.492 128.446 252.975 128.388 253.446 128.271C252.975 128.153 252.492 128.095 252.008 128.099ZM246.38 135.281C246.72 135.628 247.104 135.928 247.522 136.176C247.274 135.758 246.974 135.374 246.627 135.034C246.286 134.689 245.902 134.389 245.485 134.139C245.735 134.556 246.035 134.94 246.38 135.281ZM240.828 142.161C241.168 142.51 241.552 142.813 241.97 143.063C241.724 142.643 241.424 142.259 241.075 141.921C240.735 141.572 240.351 141.269 239.933 141.019C240.17 141.437 240.462 141.821 240.8 142.161H240.828Z" fill="#D7D7D7"/>
<path d="M240.993 145.017C239.995 143.001 235.592 134.882 234.525 133.19C234.45 133.073 234.36 133.087 234.415 133.19C236.366 137.246 238.534 141.194 240.91 145.017C240.938 145.099 241.02 145.072 240.993 145.017Z" fill="#263238"/>
<path d="M252.682 133.321C249.696 138.529 239.156 147.459 239.156 147.459L237.36 144.143L236.135 141.886C241.853 136.245 248.74 129.303 250.666 126.75C254.711 126.324 255.207 128.938 252.682 133.321Z" fill="#A6A6A6"/>
<path d="M242.933 157.311L244.495 174.511C246.598 174.414 248.695 174.203 250.776 173.878C256.264 173.055 261.701 171.922 267.061 170.486C272.379 169.11 278.613 167.211 285.74 164.68C285.74 164.68 269.62 135.605 258.495 127.583C258.241 127.397 257.993 127.225 257.739 127.067C257.69 127.025 257.642 127.005 257.594 126.97C252.537 123.771 247.962 126.282 245.43 129.846C244.79 130.741 238.598 144.817 238.908 149.537C239.19 153.685 242.933 157.311 242.933 157.311Z" fill="#3F3F3F"/>
<path d="M251.877 138.9C251.999 139.37 252.057 139.853 252.049 140.338C252.056 140.825 251.998 141.311 251.877 141.783C251.755 141.311 251.697 140.825 251.705 140.338C251.7 139.853 251.758 139.37 251.877 138.9ZM255.626 156.912C255.622 157.399 255.68 157.885 255.798 158.357C255.923 157.886 255.981 157.399 255.97 156.912C255.978 156.425 255.92 155.939 255.798 155.467C255.68 155.94 255.622 156.425 255.626 156.912ZM267.632 146.661C267.625 147.148 267.683 147.634 267.804 148.106C268.033 147.156 268.033 146.166 267.804 145.216C267.683 145.688 267.625 146.174 267.632 146.661ZM245.616 154.717C245.609 155.204 245.667 155.69 245.788 156.162C246.017 155.213 246.017 154.222 245.788 153.273C245.667 153.744 245.609 154.23 245.616 154.717ZM259.486 142.038C258.999 142.034 258.514 142.091 258.041 142.21C258.991 142.439 259.981 142.439 260.931 142.21C260.461 142.092 259.978 142.034 259.493 142.038H259.486ZM269.724 154.869C269.236 154.858 268.75 154.916 268.279 155.041C269.228 155.27 270.219 155.27 271.168 155.041C270.699 154.92 270.215 154.862 269.73 154.869H269.724ZM254.161 165.037C253.676 165.03 253.192 165.087 252.723 165.209C253.192 165.331 253.676 165.389 254.161 165.381C254.648 165.389 255.134 165.331 255.606 165.209C255.136 165.092 254.652 165.034 254.168 165.037H254.161ZM272.29 163.056C271.805 163.052 271.322 163.11 270.852 163.228C271.799 163.457 272.787 163.457 273.735 163.228C273.262 163.11 272.777 163.052 272.29 163.056ZM252.008 128.078C251.52 128.071 251.035 128.129 250.563 128.25C251.035 128.372 251.52 128.429 252.008 128.422C252.492 128.426 252.975 128.368 253.445 128.25C252.974 128.139 252.491 128.088 252.008 128.099V128.078ZM259.369 131.263C259.709 131.612 260.093 131.915 260.511 132.165C260.268 131.744 259.967 131.36 259.617 131.023C259.277 130.674 258.893 130.371 258.475 130.121C258.723 130.547 259.026 130.938 259.376 131.284L259.369 131.263ZM274.402 147.356C274.742 147.704 275.126 148.007 275.544 148.257C275.298 147.838 274.998 147.454 274.65 147.115C274.308 146.768 273.924 146.465 273.508 146.214C273.753 146.639 274.054 147.03 274.402 147.376V147.356ZM250.363 149.076C250.703 149.424 251.087 149.727 251.505 149.977C250.992 149.134 250.284 148.427 249.441 147.913C249.695 148.347 250.005 148.745 250.363 149.096V149.076ZM264.192 160.724C264.532 161.072 264.916 161.375 265.334 161.625C264.82 160.782 264.113 160.075 263.27 159.561C263.525 159.987 263.835 160.378 264.192 160.724ZM246.414 135.268C246.754 135.614 247.138 135.915 247.556 136.162C247.309 135.744 247.008 135.36 246.662 135.02C246.32 134.675 245.936 134.375 245.52 134.126C245.757 134.545 246.046 134.933 246.38 135.281L246.414 135.268ZM245.437 144.308C245.784 143.966 246.087 143.583 246.338 143.166C245.919 143.411 245.535 143.712 245.196 144.06C244.848 144.4 244.545 144.784 244.295 145.202C244.698 144.955 245.07 144.659 245.403 144.322L245.437 144.308ZM278.083 156.596C278.431 156.257 278.732 155.873 278.977 155.454C278.132 155.965 277.424 156.673 276.913 157.518C277.329 157.265 277.711 156.96 278.048 156.609L278.083 156.596ZM247.219 161.522C247.565 161.181 247.866 160.797 248.113 160.38C247.269 160.891 246.561 161.599 246.049 162.444C246.465 162.191 246.847 161.886 247.185 161.535L247.219 161.522ZM265.644 137.806C265.992 137.466 266.295 137.082 266.545 136.664C266.126 136.912 265.742 137.215 265.403 137.566C265.054 137.906 264.751 138.29 264.502 138.708C264.907 138.46 265.279 138.161 265.609 137.82L265.644 137.806ZM261.075 168.698C261.425 168.359 261.729 167.975 261.977 167.555C261.557 167.804 261.173 168.107 260.835 168.457C260.486 168.797 260.183 169.181 259.933 169.599C260.338 169.351 260.711 169.053 261.041 168.711L261.075 168.698ZM261.075 150.122C261.427 149.785 261.731 149.4 261.977 148.979C261.134 149.493 260.426 150.201 259.913 151.043C260.334 150.787 260.718 150.474 261.055 150.115L261.075 150.122Z" fill="#D7D7D7"/>
<path d="M254.436 126.675C254.34 127.363 251.602 131.835 248.616 131.951C247.639 131.986 247.205 126.688 247.205 126.688L247.081 126.303L245.382 120.93L251.464 116.272L252.352 115.646C252.352 115.646 252.716 117.153 253.156 119.024L253.218 119.292C253.218 119.395 253.273 119.492 253.294 119.595L253.5 120.441C253.549 120.661 253.597 120.875 253.638 121.129L253.783 121.817C254.111 123.42 254.329 125.042 254.436 126.675Z" fill="#EB9481"/>
<path d="M253.184 119.024C252.764 120.611 252.003 122.088 250.954 123.351C249.905 124.614 248.593 125.633 247.109 126.337L245.41 120.964L251.464 116.272L252.352 115.646C252.352 115.646 252.716 117.118 253.184 119.024Z" fill="#263238"/>
<path d="M237.842 112.832C237.793 122.725 243.717 123.874 245.85 123.881C247.783 123.881 254.381 123.668 255.482 113.83C256.583 103.991 251.966 100.847 247.542 100.592C243.119 100.338 237.89 102.918 237.842 112.832Z" fill="#EB9481"/>
<path d="M254.911 114.497C253.294 114.662 252.847 111.27 252.847 111.27C252.847 111.27 249.551 111.367 248.347 106.647C248.475 108.067 249.016 109.418 249.902 110.534C249.902 110.534 244.061 110.08 241.488 105.264C241.488 105.264 242.527 107.72 243.463 108.58C241.977 108.161 240.676 107.255 239.768 106.007C239.768 106.007 238.819 108.842 238.055 109.633C238.055 109.633 236.927 104.652 238.997 102.065C243.359 96.5608 250.521 101.377 250.521 101.377C250.521 101.377 254.526 101.982 255.957 104.982C258.165 109.571 254.911 114.497 254.911 114.497Z" fill="#263238"/>
<path d="M253.872 114.559C253.872 114.559 255.771 111.305 257.236 111.958C258.702 112.612 257.443 117.208 255.86 117.951C255.665 118.061 255.449 118.13 255.226 118.155C255.003 118.18 254.777 118.16 254.562 118.096C254.347 118.032 254.147 117.925 253.974 117.782C253.801 117.639 253.659 117.462 253.556 117.263L253.872 114.559Z" fill="#EB9481"/>
<path d="M239.08 110.83C239.313 110.79 239.542 110.734 239.768 110.665C240.011 110.638 240.238 110.531 240.415 110.362C240.463 110.3 240.49 110.224 240.49 110.145C240.49 110.067 240.463 109.99 240.415 109.929C240.297 109.825 240.154 109.755 240.001 109.725C239.848 109.695 239.689 109.706 239.541 109.757C239.226 109.816 238.944 109.99 238.75 110.245C238.712 110.303 238.691 110.37 238.689 110.44C238.686 110.509 238.703 110.577 238.737 110.638C238.771 110.698 238.821 110.748 238.882 110.782C238.942 110.816 239.011 110.832 239.08 110.83Z" fill="#263238"/>
<path d="M245.533 111.6C245.302 111.578 245.072 111.541 244.845 111.49C244.594 111.486 244.351 111.396 244.157 111.236C244.108 111.175 244.081 111.098 244.081 111.019C244.081 110.94 244.108 110.864 244.157 110.802C244.265 110.69 244.401 110.609 244.552 110.567C244.702 110.526 244.86 110.527 245.011 110.568C245.329 110.604 245.625 110.753 245.843 110.988C245.888 111.045 245.915 111.113 245.922 111.185C245.929 111.256 245.916 111.329 245.883 111.393C245.851 111.457 245.801 111.511 245.739 111.548C245.677 111.585 245.605 111.603 245.533 111.6Z" fill="#263238"/>
<path d="M244.24 113.623C244.24 113.623 244.288 113.623 244.288 113.685C244.288 114.373 244.378 115.144 244.976 115.357V115.398C244.24 115.302 244.096 114.27 244.24 113.623Z" fill="#263238"/>
<path d="M244.811 112.908C245.898 112.804 246.022 114.972 245.011 115.089C243.999 115.206 243.896 112.99 244.811 112.908Z" fill="#263238"/>
<path d="M245.245 112.997C245.444 113.114 245.644 113.32 245.877 113.334C246.111 113.348 246.332 113.1 246.497 112.873H246.531C246.531 113.293 246.421 113.733 245.981 113.823C245.54 113.912 245.293 113.548 245.128 113.135C245.107 113.073 245.169 112.956 245.245 112.997Z" fill="#263238"/>
<path d="M240.449 113.658C240.449 113.658 240.394 113.692 240.401 113.72C240.463 114.408 240.401 115.185 239.823 115.446C240.573 115.329 240.614 114.291 240.449 113.658Z" fill="#263238"/>
<path d="M239.796 112.99C238.702 112.99 238.757 115.164 239.796 115.178C240.834 115.192 240.717 113.004 239.796 112.99Z" fill="#263238"/>
<path d="M239.348 113.142C239.176 113.265 239.011 113.479 238.805 113.499C238.598 113.52 238.378 113.286 238.22 113.059H238.186C238.186 113.479 238.337 113.912 238.743 113.981C239.149 114.05 239.369 113.678 239.431 113.258C239.479 113.21 239.424 113.093 239.348 113.142Z" fill="#263238"/>
<path d="M241.584 116.657C241.584 116.657 241.488 117.648 241.488 118.15C242.414 118.122 243.34 118.219 244.24 118.439C244.453 118.501 244.44 118.322 244.199 118.191C243.481 117.805 242.664 117.64 241.853 117.717C241.818 117.586 242.032 116.155 241.956 116.155C241.586 116.201 241.225 116.299 240.883 116.444C241.02 114.318 241.502 112.226 241.605 110.107C241.605 110.091 241.598 110.075 241.587 110.064C241.575 110.052 241.559 110.046 241.543 110.046C241.527 110.046 241.511 110.052 241.499 110.064C241.488 110.075 241.481 110.091 241.481 110.107C240.9 112.328 240.54 114.6 240.408 116.891C240.428 117.146 241.399 116.747 241.584 116.657Z" fill="#263238"/>
<path d="M242.609 118.15C242.954 118.603 243.437 118.932 243.985 119.086C244.818 119.168 244.873 118.398 243.944 118.047C243.498 117.959 243.037 117.994 242.609 118.15Z" fill="#263238"/>
<path d="M243.999 119.086C243.686 119.033 243.393 118.895 243.153 118.687C243.304 118.419 243.69 118.116 244.598 118.549C244.742 118.866 244.529 119.141 243.999 119.086Z" fill="#FF99BA"/>
<path d="M252.985 125.491C254.195 125.491 256.232 125.794 258.984 127.885C258.984 127.885 253.246 132.502 247.907 132.502C246.001 132.502 245.43 129.839 245.43 129.839C245.43 129.839 247.997 125.532 252.985 125.491Z" fill="#EB9481"/>
<path d="M343.629 323.58H321.152C304.818 323.58 294.829 312.29 293.033 291.795C292.146 281.688 291.602 269.455 291.031 256.507C289.27 216.72 286.855 162.251 271.368 162.251H253.569V158.123H271.368C290.797 158.123 293.012 208.051 295.152 256.335C295.723 269.242 296.267 281.433 297.147 291.423C298.269 304.206 303.339 319.445 321.152 319.445H343.629V323.58Z" fill="#317E9B"/>
<path opacity="0.2" d="M266.641 158.109L265.761 162.237H253.569V158.109H266.641Z" fill="black"/>
<path d="M220.022 135.467H212.826V185.753H220.022V135.467Z" fill="#317E9B"/>
<path d="M212.833 139.182H185.471V181.522H212.833V139.182Z" fill="#317E9B"/>
<path opacity="0.2" d="M212.826 139.189V181.529H206.029L202.981 139.189H212.826Z" fill="black"/>
<path d="M164.473 146.785H185.464V153.114H164.473C163.754 153.114 163.065 152.829 162.557 152.32C162.048 151.812 161.763 151.123 161.763 150.404V149.502C161.762 149.146 161.831 148.793 161.967 148.463C162.103 148.133 162.302 147.834 162.554 147.581C162.806 147.329 163.105 147.128 163.434 146.992C163.764 146.855 164.117 146.785 164.473 146.785Z" fill="#3F3F3F"/>
<path d="M185.464 146.785H178.096V153.108H185.464V146.785Z" fill="#A6A6A6"/>
<path d="M164.473 167.597H185.464V173.926H164.473C163.754 173.926 163.065 173.641 162.557 173.132C162.048 172.624 161.763 171.935 161.763 171.216V170.314C161.762 169.958 161.831 169.605 161.967 169.275C162.103 168.945 162.302 168.646 162.554 168.393C162.806 168.141 163.105 167.94 163.434 167.804C163.764 167.667 164.117 167.597 164.473 167.597Z" fill="#3F3F3F"/>
<path d="M185.464 167.597H178.096V173.92H185.464V167.597Z" fill="#A6A6A6"/>
<path d="M262.548 156.314H241.172V164.755H262.548V156.314Z" fill="#317E9B"/>
<path d="M262.548 156.32H241.172V164.762H262.548V156.32Z" fill="#317E9B"/>
<path opacity="0.2" d="M248.678 156.32L247.976 164.762H241.172V156.32H248.678Z" fill="black"/>
<path d="M220.022 140.779H236.94C238.063 140.779 239.139 141.224 239.932 142.018C240.726 142.811 241.172 143.888 241.172 145.01V175.701C241.172 176.824 240.726 177.9 239.932 178.693C239.139 179.487 238.063 179.933 236.94 179.933H220.022V140.779Z" fill="#317E9B"/>
<path opacity="0.2" d="M229.021 140.779L225.974 179.933H220.029V140.779H229.021Z" fill="black"/>
<g opacity="0.2">
<path d="M227.446 148.691H226.097V172.014H227.446V148.691Z" fill="black"/>
<path d="M231.271 148.691H229.923V172.014H231.271V148.691Z" fill="black"/>
<path d="M235.096 148.691H233.748V172.014H235.096V148.691Z" fill="black"/>
</g>
<path d="M260.566 132.695C262.933 139.334 259.541 163.655 255.53 168.808C249.572 176.444 237.8 183.469 233.301 185.664C231.333 186.62 222.52 172.53 224.439 171.216C228.567 168.388 241.715 161.639 242.83 160.297C243.944 158.955 249.944 146.069 252.345 138.825C255.571 129.096 259.376 129.344 260.566 132.695Z" fill="#EB9481"/>
<path d="M233.287 185.705C227.047 189.269 214.629 188.746 212.936 188.23L210.748 187.542C208.141 186.806 207.439 185.368 207.439 185.368C207.439 185.368 204.178 185.409 203.82 183.441C203.421 181.233 208.079 181.604 210.769 180.242C216.961 177.126 224.818 170.961 226.503 169.888L233.287 185.705Z" fill="#EB9481"/>
<path d="M219.527 181.522C217.735 182.46 215.88 183.272 213.975 183.951C211.849 184.567 209.68 185.027 207.487 185.327C207.477 185.33 207.467 185.338 207.461 185.347C207.455 185.356 207.451 185.367 207.451 185.378C207.451 185.389 207.455 185.4 207.461 185.41C207.467 185.419 207.477 185.426 207.487 185.43C211.792 185.313 215.982 184.018 219.603 181.687C219.692 181.632 219.616 181.481 219.527 181.522Z" fill="#263238"/>
<path d="M221.949 184.969C220.119 185.726 216.892 187.033 210.741 187.487C210.741 187.487 210.741 187.521 210.741 187.528C214.648 187.798 218.552 186.976 222.018 185.154C222.128 185.072 222.073 184.921 221.949 184.969Z" fill="#263238"/>
<path d="M217.958 176.025C218.598 175.337 218.22 174.965 216.527 175.268C214.835 175.571 208.402 178.226 207.666 175.908C206.93 173.589 216.066 169.97 218.922 169.675C221.501 169.541 224.087 169.617 226.655 169.902C225.017 170.961 221.137 173.906 217.958 176.025Z" fill="#EB9481"/>
<path d="M253.927 134.366C258.089 125.608 261.887 127.927 262.252 136.589C262.375 142.604 262.103 148.621 261.44 154.6L246.352 150.28C246.352 150.28 251.264 139.974 253.927 134.366Z" fill="#3F3F3F"/>
<path d="M257.684 129.261C258.526 129.775 259.234 130.483 259.748 131.325C258.905 130.812 258.197 130.104 257.684 129.261ZM251.705 140.352C251.697 140.839 251.755 141.325 251.877 141.797C251.998 141.325 252.056 140.839 252.049 140.352C252.057 139.867 251.999 139.383 251.877 138.914C251.758 139.384 251.7 139.867 251.705 140.352ZM259.493 142.051C259.006 142.047 258.521 142.105 258.048 142.223C258.998 142.453 259.988 142.453 260.938 142.223C260.466 142.101 259.98 142.038 259.493 142.038V142.051ZM250.363 149.097C250.703 149.445 251.087 149.748 251.505 149.998C250.992 149.155 250.284 148.447 249.441 147.934C249.696 148.36 250.006 148.751 250.363 149.097ZM261.055 150.115C261.407 149.778 261.71 149.393 261.956 148.973C261.113 149.486 260.406 150.194 259.892 151.037C260.32 150.784 260.711 150.474 261.055 150.115Z" fill="#D7D7D7"/>
<path d="M252.496 137.036C251.932 138.185 251.34 139.313 250.749 140.476C250.849 139.939 250.932 139.396 250.996 138.845H250.955C250.872 139.272 250.769 139.698 250.687 140.125C250.652 140.331 250.611 140.538 250.57 140.744C250.57 140.785 250.57 140.827 250.57 140.875C250.109 141.755 249.655 142.643 249.194 143.537C248.671 144.611 248.182 145.691 247.687 146.771C247.192 147.851 246.731 149.172 246.173 150.266C246.648 150.464 247.141 150.611 247.646 150.706C247.776 150.755 247.845 150.624 247.708 150.603C247.57 150.583 246.442 150.135 246.428 150.128C246.923 149.035 247.536 148.003 248.058 146.929C248.581 145.856 249.118 144.796 249.62 143.716C250.638 141.528 251.533 139.279 252.544 137.084C252.544 137.029 252.496 137.008 252.496 137.036Z" fill="#263238"/>
<path d="M262.878 142.251C262.74 142.698 262.582 143.145 262.465 143.627C262.424 143.819 262.376 144.005 262.328 144.198C262.383 142.629 262.433 141.065 262.479 139.506C262.266 142.065 262.045 144.618 261.88 147.177C261.641 149.628 261.528 152.09 261.543 154.552C261.091 154.445 260.631 154.374 260.167 154.339C260.668 154.552 261.192 154.702 261.729 154.786C262.107 152.309 262.135 149.571 262.259 147.081C262.293 146.393 262.314 145.705 262.341 144.968C262.424 144.535 262.548 144.108 262.665 143.682C262.782 143.255 262.871 142.76 262.967 142.306C262.933 142.237 262.885 142.223 262.878 142.251Z" fill="#263238"/>
<path d="M260.828 152.316C258.702 151.559 249.895 148.78 247.955 148.305C247.818 148.271 247.763 148.346 247.9 148.395C252.121 149.963 256.425 151.298 260.793 152.392C260.848 152.413 260.883 152.33 260.828 152.316Z" fill="#263238"/>
<path d="M186.861 149.984C188.925 150.617 188.505 147.796 188.505 147.796C188.505 147.796 190.122 151.704 192.523 151.532C194.924 151.36 194.181 147.968 194.14 147.72C194.222 147.927 195.805 151.477 198.199 151.057C200.593 150.638 199.444 147.321 199.362 147.115C199.506 147.28 201.426 149.475 203.187 148.739C206.187 147.473 201.398 141.721 201.749 139.107L205.967 139.231C206.105 139.217 206.243 139.197 206.379 139.169L206.538 137.015C205.19 136.468 203.888 135.815 202.644 135.061C201.054 134.167 199.52 133.355 198.378 133.328C197.866 133.3 197.358 133.439 196.93 133.722C196.503 134.006 196.178 134.42 196.004 134.903C196.004 134.903 194.766 132.949 192.867 133.224C191.897 133.369 191.264 135.054 191.264 135.054C190.959 134.623 190.54 134.284 190.055 134.077C189.569 133.869 189.035 133.8 188.512 133.878C187.177 134.153 186.751 135.804 186.751 135.804C186.751 135.804 185.058 134.807 183.786 135.536C181.233 136.953 182.403 148.608 186.861 149.984Z" fill="#EB9481"/>
<path d="M202.272 138.859L205.946 139.196C206.084 139.183 206.222 139.162 206.359 139.134C210.996 138.295 213.885 132.984 210.487 132.605C207.934 132.309 205.168 135.701 202.588 135.02L202.272 138.859Z" fill="#EB9481"/>
<path d="M186.661 136.018H186.599C186.015 140.087 186.682 144.238 188.512 147.92C188.574 148.037 188.787 147.982 188.746 147.844C187.48 144.024 186.778 140.04 186.661 136.018Z" fill="#263238"/>
<path d="M191.264 134.965C191.264 134.917 191.188 134.917 191.181 134.965C190.562 139.452 191.567 144.013 194.016 147.824C194.105 147.954 194.319 147.982 194.222 147.824C192.695 145.168 191.264 138.742 191.264 134.965Z" fill="#263238"/>
<path d="M199.637 147.28C197.263 143.537 196.321 139.409 195.97 135.034C195.97 134.979 195.887 134.992 195.874 135.034C195.468 137.222 195.984 139.987 196.562 142.106C197.066 144.082 198.079 145.892 199.499 147.356C199.568 147.418 199.692 147.363 199.637 147.28Z" fill="#263238"/>
<path d="M141.522 304.096C140.097 304.571 99.3197 304.454 97.7648 303.47C97.18 303.098 96.8498 297.154 96.6571 289.965C96.609 288.417 96.5815 286.814 96.5539 285.183C96.5539 283.257 96.4989 281.303 96.4851 279.404C96.437 270.886 96.5539 263.387 96.5539 263.387H123.104V279.404V285.183L122.966 289.965C122.966 289.965 138.556 296.996 140.166 298.262C141.776 299.528 142.946 303.656 141.522 304.096Z" fill="#AD6359"/>
<path d="M141.522 304.096C140.097 304.571 99.3197 304.454 97.7648 303.47C97.18 303.098 96.8497 297.154 96.6571 289.964C96.6089 288.416 96.5814 286.813 96.5539 285.183C96.5539 283.257 96.4989 281.303 96.4851 279.404H123.09V285.183L122.952 289.964C122.952 289.964 138.543 296.996 140.152 298.262C141.762 299.528 142.946 303.656 141.522 304.096Z" fill="#D7D7D7"/>
<path d="M141.645 304.185C140.717 304.495 123.352 304.557 110.685 304.296C107.755 304.227 105.078 304.151 102.925 304.055C99.9458 303.917 97.9506 303.759 97.6272 303.552C96.9048 303.091 96.5677 294.368 96.4026 285.162H123.076L122.939 289.978C122.939 289.978 138.618 297.051 140.214 298.324C141.811 299.596 143.104 303.704 141.645 304.185Z" fill="#632240"/>
<path d="M141.04 302.548C134.16 302.355 106.434 302.245 99.6225 302.582C99.5674 302.582 99.5674 302.617 99.6225 302.624C106.434 302.961 134.167 302.844 141.04 302.658C141.205 302.651 141.212 302.548 141.04 302.548Z" fill="#263238"/>
<path d="M123.936 288.451C121.233 287.942 117.923 288.348 115.852 290.267C115.77 290.343 115.852 290.453 115.969 290.425C118.556 289.597 121.225 289.05 123.929 288.795C123.975 288.796 124.019 288.779 124.052 288.747C124.085 288.715 124.104 288.672 124.105 288.626C124.106 288.581 124.089 288.537 124.057 288.504C124.025 288.471 123.982 288.452 123.936 288.451Z" fill="#263238"/>
<path d="M125.904 289.648C123.2 289.132 119.891 289.538 117.813 291.464C117.737 291.533 117.813 291.65 117.93 291.623C120.521 290.789 123.195 290.237 125.904 289.978C125.94 289.968 125.971 289.946 125.993 289.916C126.016 289.887 126.028 289.85 126.028 289.813C126.028 289.776 126.016 289.74 125.993 289.71C125.971 289.68 125.94 289.658 125.904 289.648Z" fill="#263238"/>
<path d="M127.837 290.818C125.133 290.302 121.824 290.708 119.753 292.627C119.671 292.703 119.753 292.82 119.863 292.792C122.451 291.966 125.12 291.417 127.824 291.155C127.863 291.149 127.899 291.129 127.925 291.099C127.952 291.07 127.967 291.032 127.969 290.992C127.97 290.952 127.958 290.913 127.934 290.881C127.91 290.849 127.876 290.827 127.837 290.818Z" fill="#263238"/>
<path d="M129.784 292.001C127.081 291.485 123.771 291.891 121.7 293.81C121.618 293.886 121.7 294.003 121.817 293.976C124.402 293.145 127.068 292.596 129.771 292.338C129.81 292.332 129.846 292.312 129.872 292.283C129.899 292.253 129.914 292.215 129.916 292.175C129.917 292.135 129.905 292.096 129.881 292.065C129.857 292.033 129.823 292.01 129.784 292.001Z" fill="#263238"/>
<path d="M128.952 282.211C127.892 280.745 125.911 281.399 124.783 282.342C122.869 284.003 121.427 286.138 120.599 288.534C120.595 288.544 120.593 288.555 120.594 288.567C120.595 288.578 120.599 288.589 120.605 288.598C120.611 288.608 120.619 288.616 120.629 288.621C120.639 288.627 120.65 288.63 120.661 288.63C120.661 288.836 120.854 289.056 121.081 288.967C123.317 288.148 125.815 287.55 127.727 286.064C128.849 285.197 129.956 283.601 128.952 282.211ZM124.218 287.027C123.131 287.453 122.024 287.832 120.95 288.3C121.731 287.072 122.574 285.884 123.475 284.743C123.917 284.195 124.397 283.68 124.913 283.202C125.718 282.465 128.911 280.917 128.422 283.89C128.154 285.52 125.519 286.511 124.218 287.027Z" fill="#263238"/>
<path d="M113.726 287.797C115.949 288.754 118.542 288.712 120.882 288.953C120.934 288.953 120.986 288.94 121.033 288.917C121.08 288.893 121.121 288.86 121.153 288.818C121.185 288.776 121.207 288.727 121.217 288.675C121.227 288.624 121.225 288.571 121.212 288.52C121.22 288.513 121.227 288.505 121.232 288.495C121.237 288.486 121.239 288.475 121.239 288.465C121.239 288.454 121.237 288.443 121.232 288.434C121.227 288.424 121.22 288.416 121.212 288.41C119.823 286.301 117.907 284.593 115.653 283.456C114.318 282.823 112.213 282.685 111.58 284.371C110.947 286.057 112.426 287.24 113.726 287.797ZM112.509 285.871C111.298 283.119 114.772 283.807 115.735 284.323C116.353 284.665 116.948 285.047 117.517 285.465C118.675 286.344 119.787 287.284 120.847 288.279C119.691 288.093 118.529 288.004 117.366 287.859C115.976 287.687 113.176 287.385 112.509 285.871Z" fill="#263238"/>
<path d="M126.874 283.291L93.9739 283.883C93.9739 283.883 89.495 254.773 86.5504 236.672C85.4358 229.868 84.5552 224.611 84.1974 223.029C83.3443 219.252 66.6741 159.3 66.6741 159.3L90.5889 159.265H98.7624C98.7624 159.265 98.2395 169.289 98.5491 170.342C102.815 184.852 111.532 210.583 114.256 219.548C118.432 233.328 126.874 283.291 126.874 283.291Z" fill="#A6A6A6"/>
<path d="M123.881 278.248C119.162 278.213 102.416 278.028 96.1273 278.613C96.1184 278.616 96.1107 278.622 96.1053 278.63C96.0999 278.638 96.097 278.648 96.097 278.657C96.097 278.667 96.0999 278.676 96.1053 278.684C96.1107 278.692 96.1184 278.698 96.1273 278.702C98.2945 279.012 119.162 278.53 123.888 278.379C123.899 278.381 123.91 278.382 123.92 278.379C123.931 278.377 123.941 278.372 123.949 278.366C123.958 278.359 123.964 278.35 123.969 278.34C123.973 278.33 123.975 278.319 123.975 278.309C123.974 278.298 123.971 278.287 123.965 278.278C123.96 278.268 123.952 278.26 123.943 278.254C123.934 278.249 123.924 278.245 123.913 278.244C123.902 278.243 123.891 278.244 123.881 278.248Z" fill="#263238"/>
<path d="M94.5106 253.439C93.3731 245.912 92.1049 238.403 90.7059 230.913C90.0179 227.233 89.268 223.559 88.3048 219.905C87.3416 216.252 86.117 212.64 84.8648 209.056C82.4018 201.928 80.0488 194.766 77.8403 187.556C75.6319 180.345 73.5747 173.108 71.6483 165.808C71.4007 164.886 71.1599 163.964 70.8915 163.056C70.8915 162.98 70.7608 163.015 70.7746 163.056C71.5245 166.73 72.4946 170.369 73.4234 174.002C74.3522 177.635 75.3498 181.254 76.3887 184.859C78.4802 192.096 80.7483 199.284 83.193 206.421C84.4107 209.971 85.6767 213.514 86.7568 217.112C87.837 220.71 88.6763 224.357 89.4262 228.031C90.9467 235.489 92.2402 242.995 93.4373 250.501C94.6344 258.007 95.6595 265.637 96.664 273.205C96.7947 274.161 96.9186 275.124 97.0424 276.088C97.0768 276.356 97.5034 276.356 97.4758 276.088C96.6984 268.54 95.632 260.979 94.5106 253.439Z" fill="#263238"/>
<path d="M90.5889 159.251L86.5504 236.672C85.4358 229.868 84.5552 224.611 84.1974 223.029C83.3443 219.252 66.6741 159.299 66.6741 159.299L90.5889 159.251Z" fill="#263238"/>
<path d="M100.716 310.618C99.2922 311.093 58.5144 310.976 56.9595 309.985C56.3747 309.621 56.0445 303.676 55.8518 296.487C55.8037 294.932 55.7762 293.336 55.7486 291.705C55.7486 289.772 55.6936 287.825 55.6798 285.926C55.6317 277.409 55.7486 269.909 55.7486 269.909H82.2917V291.712L82.1541 296.494C82.1541 296.494 97.7442 303.525 99.3541 304.791C100.964 306.057 102.14 310.15 100.716 310.618Z" fill="#AD6359"/>
<path d="M100.716 310.618C99.2921 311.093 58.5144 310.976 56.9595 309.985C56.3747 309.621 56.0444 303.676 55.8518 296.487C55.8036 294.932 55.7761 293.336 55.7486 291.705C55.7486 289.772 55.6936 287.825 55.6798 285.926H82.2848V291.712L82.1472 296.494C82.1472 296.494 97.7372 303.525 99.3472 304.791C100.957 306.057 102.14 310.15 100.716 310.618Z" fill="#D7D7D7"/>
<path d="M100.84 310.68C99.9113 310.983 82.5393 311.045 69.8801 310.783C66.9561 310.721 64.2798 310.639 62.1195 310.549C59.1473 310.412 57.1521 310.247 56.8219 310.04C56.1339 309.579 55.7624 300.862 55.6041 291.657H82.2779L82.1403 296.473C82.1403 296.473 97.8336 303.539 99.4297 304.784C101.026 306.029 102.271 310.199 100.84 310.68Z" fill="#632240"/>
<path d="M100.255 309.036C93.3754 308.85 65.6421 308.733 58.8378 309.07C58.7827 309.07 58.7827 309.111 58.8378 309.118C65.6421 309.449 93.3823 309.339 100.255 309.153C100.4 309.146 100.4 309.043 100.255 309.036Z" fill="#263238"/>
<path d="M83.1311 294.946C80.4272 294.43 77.118 294.836 75.0471 296.755C74.9645 296.831 75.0471 296.948 75.1572 296.92C77.745 296.094 80.4134 295.545 83.1173 295.283C83.1566 295.277 83.1926 295.257 83.2191 295.227C83.2456 295.198 83.2609 295.16 83.2626 295.12C83.2642 295.08 83.252 295.041 83.228 295.009C83.204 294.977 83.1698 294.955 83.1311 294.946Z" fill="#263238"/>
<path d="M85.0781 296.129C82.3742 295.613 79.065 296.019 76.9941 297.938C76.9115 298.014 76.9941 298.131 77.111 298.104C79.6977 297.272 82.3666 296.723 85.0712 296.466C85.1103 296.459 85.1457 296.439 85.1715 296.408C85.1972 296.378 85.2117 296.34 85.2126 296.3C85.2134 296.261 85.2004 296.222 85.1759 296.191C85.1514 296.159 85.1168 296.138 85.0781 296.129Z" fill="#263238"/>
<path d="M87.032 297.305C84.3282 296.796 81.0189 297.202 78.9412 299.122C78.8655 299.197 78.9412 299.308 79.0581 299.28C81.646 298.455 84.3145 297.908 87.0183 297.649C87.0639 297.651 87.1084 297.635 87.1419 297.604C87.1755 297.573 87.1953 297.53 87.1972 297.484C87.199 297.439 87.1826 297.394 87.1516 297.361C87.1207 297.327 87.0777 297.307 87.032 297.305Z" fill="#263238"/>
<path d="M88.979 298.489C86.2752 297.98 82.9659 298.386 80.895 300.305C80.8124 300.381 80.895 300.491 81.0051 300.463C83.5931 299.639 86.2615 299.093 88.9652 298.833C89.0108 298.835 89.0553 298.818 89.0889 298.787C89.1224 298.756 89.1423 298.713 89.1441 298.668C89.1459 298.622 89.1296 298.578 89.0986 298.544C89.0676 298.51 89.0246 298.491 88.979 298.489Z" fill="#263238"/>
<path d="M88.1465 288.705C87.087 287.233 85.1056 287.887 83.9704 288.836C82.0572 290.498 80.6146 292.633 79.7873 295.028C79.7842 295.039 79.7836 295.051 79.7855 295.062C79.7875 295.073 79.7919 295.084 79.7985 295.093C79.8051 295.102 79.8137 295.11 79.8237 295.115C79.8337 295.121 79.8448 295.124 79.8561 295.124C79.853 295.177 79.8626 295.23 79.8839 295.278C79.9053 295.326 79.9379 295.368 79.979 295.401C80.0201 295.434 80.0684 295.457 80.1201 295.467C80.1717 295.478 80.2251 295.476 80.2758 295.462C82.5118 294.643 85.0024 294.044 86.9219 292.558C88.064 291.712 89.1441 290.088 88.1465 288.705ZM83.4131 293.521C82.3192 293.955 81.2184 294.326 80.1451 294.801C80.9638 293.597 81.7275 292.366 82.6632 291.244C83.1082 290.697 83.5885 290.18 84.1011 289.696C84.9129 288.967 88.0984 287.419 87.6168 290.384C87.376 292.015 84.7134 293.005 83.4131 293.515V293.521Z" fill="#263238"/>
<path d="M72.928 294.292C75.1571 295.248 77.744 295.207 80.09 295.448C80.1434 295.448 80.196 295.436 80.2437 295.412C80.2913 295.388 80.3326 295.353 80.3642 295.31C80.3958 295.267 80.4167 295.217 80.4252 295.165C80.4338 295.112 80.4297 295.058 80.4134 295.008C80.4241 295.004 80.4338 294.998 80.442 294.99C80.4501 294.982 80.4563 294.973 80.4603 294.962C80.4642 294.952 80.4658 294.94 80.4648 294.929C80.4638 294.918 80.4604 294.907 80.4547 294.897C79.0528 292.791 77.1245 291.088 74.8612 289.958C73.5265 289.325 71.4212 289.187 70.7883 290.873C70.1553 292.558 71.6139 293.735 72.928 294.292ZM71.7171 292.359C70.5062 289.607 73.9806 290.295 74.9438 290.818C75.5628 291.155 76.1581 291.535 76.7257 291.953C77.8823 292.837 78.9936 293.778 80.0556 294.774C78.8929 294.581 77.7302 294.498 76.5675 294.354C75.1708 294.182 72.3707 293.879 71.7033 292.359H71.7171Z" fill="#263238"/>
<path d="M86 289.393H53.8085C53.8085 289.393 60.8054 189.578 59.6771 183.985C57.8264 174.828 59.0579 164.308 63.3923 159.217H92.0338C92.0338 159.217 92.6048 167.253 89.6464 172.055C89.6464 172.055 86.9563 173.754 85.656 174.504L86 289.393Z" fill="#A6A6A6"/>
<path d="M83.0004 284.185C78.5421 284.075 79.8287 284.041 75.3636 283.979C73.1826 283.945 58.8516 283.745 56.7876 284.068C56.7394 284.068 56.7394 284.151 56.7876 284.158C58.8516 284.509 73.1757 284.461 75.3636 284.447C79.8218 284.447 78.5421 284.385 83.0004 284.316C83.0142 284.312 83.0261 284.303 83.0346 284.291C83.0431 284.279 83.0477 284.265 83.0477 284.251C83.0477 284.236 83.0431 284.222 83.0346 284.21C83.0261 284.199 83.0142 284.19 83.0004 284.185Z" fill="#263238"/>
<path d="M91.4352 170.796C88.6191 172.154 85.9239 173.749 83.3787 175.564C83.3577 175.577 83.3427 175.597 83.3369 175.621C83.331 175.645 83.335 175.67 83.3477 175.691C83.3605 175.712 83.3811 175.727 83.405 175.733C83.4288 175.739 83.454 175.735 83.475 175.722C86.227 174.215 88.979 172.757 91.6209 171.106C91.662 171.081 91.6916 171.041 91.7032 170.995C91.7148 170.948 91.7075 170.899 91.6828 170.858C91.6582 170.817 91.6183 170.787 91.5718 170.776C91.5254 170.764 91.4762 170.771 91.4352 170.796Z" fill="#263238"/>
<path d="M87.7819 170.383C87.6186 170.939 87.49 171.504 87.3966 172.076C87.2797 172.525 87.2494 172.992 87.3072 173.452C87.3072 173.541 87.4516 173.534 87.4929 173.452C87.7088 173.018 87.8573 172.554 87.9332 172.076C88.0708 171.546 88.2222 171.023 88.3392 170.493C88.4217 170.156 87.892 170.039 87.7819 170.383Z" fill="#263238"/>
<path d="M87.5273 167.624C87.603 167.143 87.6787 166.668 87.7681 166.193C87.8576 165.719 87.9814 165.203 88.0296 164.707C88.0296 164.625 88.1672 164.652 88.1534 164.707C88.0777 165.189 88.0708 165.684 88.0296 166.166C87.9883 166.647 87.947 167.136 87.8988 167.618C87.802 168.525 87.6596 169.428 87.4723 170.321C87.9475 170.24 88.3987 170.055 88.7932 169.778C89.159 169.401 89.3993 168.92 89.4812 168.402C89.6188 167.851 89.7427 167.301 89.8871 166.751C90.082 166.155 90.2225 165.542 90.3068 164.921C90.3068 164.838 90.4444 164.866 90.4307 164.921C90.3188 166.228 90.0745 167.522 89.7014 168.78C89.6209 169.279 89.3647 169.733 88.979 170.06C88.4823 170.325 87.9369 170.486 87.376 170.535C87.314 170.535 87.2177 170.535 87.2246 170.459C87.2784 169.51 87.3795 168.564 87.5273 167.624Z" fill="#263238"/>
<path d="M64.328 183.62C64.1216 181.515 63.7776 179.423 63.5505 177.318C63.1203 173.104 63.3759 168.847 64.3073 164.714C64.3073 164.638 64.2041 164.604 64.1904 164.714C63.3758 168.344 62.997 172.058 63.062 175.777C63.2478 179.492 63.9083 183.152 63.9633 186.875C64.0184 190.597 63.7294 194.408 63.4886 198.165C63.2478 201.921 63.0001 205.733 62.7593 209.51C61.7824 224.708 60.8811 239.906 59.9523 255.11C59.6954 259.348 59.4477 263.591 59.2092 267.838C58.9616 272.152 58.6588 276.473 58.5212 280.8C58.5212 281.172 59.0579 281.144 59.0923 280.8C59.739 273.17 60.1105 265.513 60.599 257.883C61.0875 250.253 61.5209 242.747 61.975 235.179C62.4291 227.611 62.89 220.043 63.351 212.475C63.5712 208.696 63.8005 204.916 64.039 201.137C64.2592 197.373 64.5344 193.603 64.5894 189.833C64.6197 187.759 64.5324 185.685 64.328 183.62Z" fill="#263238"/>
<path d="M74.4692 164.432C74.463 164.422 74.4544 164.414 74.4442 164.408C74.4339 164.402 74.4224 164.399 74.4107 164.399C74.399 164.399 74.3875 164.402 74.3772 164.408C74.367 164.414 74.3584 164.422 74.3522 164.432C74.1813 164.93 74.0908 165.453 74.0839 165.98C73.9948 166.544 73.8637 167.1 73.6917 167.645C73.3759 168.74 72.7835 169.735 71.9717 170.535C70.1692 172.22 67.7543 172.846 65.4289 173.41C65.4135 173.415 65.4 173.425 65.3904 173.438C65.3809 173.451 65.3757 173.466 65.3757 173.483C65.3757 173.499 65.3809 173.514 65.3904 173.527C65.4 173.54 65.4135 173.55 65.4289 173.555C66.8106 173.617 68.1908 173.402 69.4881 172.922C70.6452 172.568 71.7128 171.97 72.6185 171.167C73.4832 170.345 74.0741 169.276 74.3109 168.106C74.4339 167.494 74.4984 166.872 74.5036 166.248C74.5036 165.952 74.5036 165.657 74.5036 165.354C74.5529 165.047 74.5412 164.734 74.4692 164.432Z" fill="#263238"/>
<path d="M87.954 125.821C88.5457 130.5 97.7098 147.892 107.466 155.598C111.043 158.426 130.011 160.098 134.759 159.726C140.311 159.299 141.143 146.083 138.033 145.051C134.146 143.764 116.162 142.175 112.633 140.923C108.339 139.368 100.524 129.385 93.0933 123.207C89.2749 120.008 87.4999 122.223 87.954 125.821Z" fill="#AD6359"/>
<path d="M134.759 159.733C136.513 159.685 144.542 158.763 146.723 158.006C148.904 157.249 154.979 154.621 154.594 152.894C154.208 151.167 152.337 151.793 152.337 151.793C152.337 151.793 154.738 150.273 154.167 148.574C153.596 146.874 150.727 147.948 150.727 147.948C150.727 147.948 153.08 146.207 152.385 144.549C151.69 142.891 149.014 144.452 149.014 144.452C149.014 144.452 151.243 142.96 150.101 141.831C148.725 140.455 144.927 143.696 142.464 144.349C141.9 144.501 130.892 146.558 130.892 146.558L134.759 159.733Z" fill="#AD6359"/>
<path d="M149.296 144.322C146.496 146.675 144.865 147.225 141.301 147.714C141.289 147.718 141.279 147.726 141.271 147.736C141.264 147.747 141.26 147.759 141.26 147.772C141.26 147.785 141.264 147.797 141.271 147.808C141.279 147.818 141.289 147.826 141.301 147.831C144.831 147.665 146.977 147.273 149.413 144.452C149.516 144.315 149.406 144.212 149.296 144.322Z" fill="#263238"/>
<path d="M150.968 147.755C147.851 149.984 146.09 150.555 142.416 151.36C142.368 151.36 142.382 151.463 142.416 151.456C146.104 150.982 148.236 150.541 151.064 147.941C151.181 147.81 151.112 147.652 150.968 147.755Z" fill="#263238"/>
<path d="M152.144 151.828C148.973 153.734 147.067 154.484 143.379 154.793C143.361 154.793 143.343 154.8 143.331 154.813C143.318 154.826 143.31 154.844 143.31 154.862C143.31 154.88 143.318 154.898 143.331 154.911C143.343 154.923 143.361 154.931 143.379 154.931C146.594 155.124 149.757 154.047 152.186 151.931C152.371 151.787 152.344 151.711 152.144 151.828Z" fill="#263238"/>
<path d="M128.346 145.113C130.2 143.915 132.138 142.855 134.146 141.941C136.086 141.253 144.274 141.253 144.363 143.028C144.487 145.313 139.76 146.228 137.387 146.379C137.387 146.379 137.683 151.656 134.428 153.053C131.174 154.449 128.346 145.113 128.346 145.113Z" fill="#AD6359"/>
<path d="M144.198 143.668C142.822 145.828 139.678 145.822 137.387 146.138C137.352 146.14 137.318 146.15 137.289 146.168C137.259 146.187 137.235 146.212 137.218 146.242C137.201 146.272 137.191 146.306 137.191 146.341C137.19 146.376 137.198 146.41 137.215 146.441C137.215 148.663 136.527 151.787 134.566 153.101C134.504 153.142 134.566 153.231 134.614 153.197C136.891 152.069 137.813 149.069 137.683 146.613C140.036 146.331 143.187 146.2 144.219 143.675C144.225 143.661 144.205 143.654 144.198 143.668Z" fill="#263238"/>
<path d="M118.37 159.478C118.37 159.478 108.656 156.823 107.473 155.894C106.181 154.879 104.95 153.79 103.785 152.633C94.9441 143.943 89.6052 132.096 88.1604 127.968C86.633 123.572 88.0365 119.361 92.1301 122.196C92.4595 122.429 92.7764 122.679 93.0796 122.946C97.8956 127.142 110.775 139.905 112.344 140.558C113.912 141.212 121.473 142.203 121.473 142.203L118.37 159.478Z" fill="#455A64"/>
<path d="M103.785 152.633C94.9441 143.943 89.6052 132.096 88.1604 127.968C86.633 123.572 88.0365 119.361 92.1301 122.196L103.785 152.633Z" fill="#263238"/>
<path d="M118.336 141.9C117.884 143.228 117.509 144.581 117.215 145.952C116.877 147.328 116.527 148.704 116.245 150.08C115.632 152.779 115.173 155.51 114.869 158.261C114.869 158.277 114.875 158.293 114.887 158.304C114.898 158.316 114.914 158.323 114.93 158.323C114.947 158.323 114.963 158.316 114.974 158.304C114.986 158.293 114.992 158.277 114.992 158.261C115.735 155.564 116.286 152.805 116.85 150.067C117.132 148.691 117.387 147.356 117.669 146.007C117.951 144.659 118.288 143.255 118.439 141.921C118.442 141.907 118.439 141.893 118.431 141.881C118.424 141.869 118.412 141.861 118.398 141.859C118.384 141.856 118.37 141.859 118.358 141.866C118.347 141.874 118.339 141.886 118.336 141.9Z" fill="#263238"/>
<path d="M97.3795 135.35C97.6065 136.368 97.7854 137.414 97.923 138.488C97.9196 138.446 97.9196 138.405 97.923 138.364C97.978 137.779 98.0193 137.18 98.1225 136.602C98.1225 136.602 98.1776 136.568 98.1776 136.602C98.2131 137.197 98.19 137.794 98.1088 138.384C98.0744 138.666 98.04 138.948 97.9987 139.224C98.0468 139.698 98.0881 140.173 98.1156 140.641C98.1707 141.535 98.3427 145.354 98.322 146.007C98.322 146.145 98.1638 146.159 98.1294 146.007C97.9987 145.319 97.6547 141.405 97.5584 140.503C97.3783 138.785 97.291 137.058 97.2969 135.33C97.3107 135.309 97.3657 135.316 97.3795 135.35Z" fill="#263238"/>
<path d="M98.4734 163.93C97.0974 165.168 95.4187 166.978 85.7592 167.652C85.1538 167.652 84.5346 167.7 83.9154 167.652C74.6136 167.39 61.5622 160.084 60.7848 159.506C60.7848 159.506 70.809 132.385 84.0667 121.976C85.9587 120.483 90.0179 121.219 92.5566 122.753C93.4648 123.303 96.4645 128.319 97.0699 132.887C97.6753 137.455 99.8426 162.691 98.4734 163.93Z" fill="#455A64"/>
<path d="M90.9398 129.55C88.6006 129.743 85.25 125.698 84.1492 122.67C84.0736 122.464 84.679 120.489 85.2982 118.054C85.6697 116.575 86.0481 114.924 86.2821 113.389C86.3302 113.073 87.3141 113.816 87.3141 113.816L89.2267 114.6L95.5563 117.201C94.7106 119.035 94.0937 120.967 93.7193 122.952C93.699 123.168 93.699 123.384 93.7193 123.599C93.7223 123.634 93.7223 123.668 93.7193 123.702C93.6987 124.92 93.1964 129.344 90.9398 129.55Z" fill="#AD6359"/>
<path d="M93.6918 123.592C93.6948 123.627 93.6948 123.661 93.6918 123.696C93.3572 123.691 93.0235 123.659 92.6942 123.599C86.227 122.464 86.688 114.091 86.688 114.091L89.2336 114.593L95.5632 117.194C94.7175 119.029 94.1005 120.96 93.7262 122.946C93.6944 123.16 93.6829 123.376 93.6918 123.592Z" fill="#263238"/>
<path d="M85.6284 103.31C84.3969 106.709 85.711 116.767 88.0502 119.134C91.4421 122.574 97.2556 123.145 100.207 119.003C103.076 114.999 101.129 101.913 98.4941 99.7393C94.6069 96.5539 87.4448 98.2946 85.6284 103.31Z" fill="#AD6359"/>
<path d="M94.7926 110.273C94.7926 110.273 94.7445 110.314 94.7513 110.342C94.8545 111.03 94.8683 111.807 94.2766 112.11C94.2766 112.11 94.2766 112.151 94.2766 112.144C95.0265 111.945 95.0059 110.892 94.7926 110.273Z" fill="#263238"/>
<path d="M94.0978 109.64C92.997 109.695 93.1896 111.889 94.2078 111.841C95.2261 111.793 95.0197 109.592 94.0978 109.64Z" fill="#263238"/>
<path d="M98.962 109.819C98.962 109.819 99.017 109.819 99.017 109.874C99.0583 110.562 99.2165 111.332 99.8495 111.511C99.072 111.504 98.8863 110.472 98.962 109.819Z" fill="#263238"/>
<path d="M99.5124 109.055C100.599 108.883 100.888 111.071 99.8632 111.236C98.8381 111.401 98.5973 109.206 99.5124 109.055Z" fill="#263238"/>
<path d="M93.2446 108.016C93.5336 107.913 93.7881 107.768 94.0702 107.638C94.3771 107.548 94.6457 107.359 94.8339 107.101C94.8796 107.008 94.893 106.903 94.8718 106.802C94.8506 106.701 94.796 106.61 94.7169 106.544C94.5381 106.44 94.3352 106.386 94.1287 106.386C93.9222 106.386 93.7193 106.44 93.5405 106.544C93.1456 106.693 92.8213 106.985 92.6323 107.362C92.5978 107.45 92.5888 107.545 92.6064 107.637C92.624 107.729 92.6674 107.815 92.7315 107.883C92.7957 107.952 92.878 108 92.9688 108.024C93.0596 108.048 93.1553 108.045 93.2446 108.016Z" fill="#263238"/>
<path d="M100.2 108.312C99.8995 108.279 99.6009 108.228 99.3059 108.16C98.9841 108.15 98.6746 108.034 98.4253 107.83C98.3639 107.749 98.3307 107.65 98.3307 107.548C98.3307 107.446 98.3639 107.347 98.4253 107.266C98.5668 107.116 98.7466 107.007 98.9455 106.951C99.1443 106.895 99.3545 106.895 99.5536 106.95C99.9748 106.993 100.365 107.192 100.648 107.507C100.707 107.585 100.742 107.678 100.749 107.775C100.757 107.873 100.735 107.97 100.688 108.056C100.64 108.141 100.569 108.211 100.482 108.257C100.396 108.302 100.298 108.321 100.2 108.312Z" fill="#263238"/>
<path d="M98.0056 113.52C98.0746 114.015 98.1182 114.513 98.1363 115.013C97.2058 115.017 96.2801 115.146 95.3843 115.398C95.1779 115.467 95.1779 115.288 95.3843 115.151C96.0851 114.734 96.896 114.539 97.7097 114.593C97.7097 114.463 97.4758 113.038 97.5515 113.032C97.9211 113.069 98.2842 113.155 98.6317 113.286C98.4184 111.167 97.868 109.096 97.6822 106.984C97.6822 106.908 97.7854 106.881 97.8061 106.95C98.4708 109.149 98.9111 111.411 99.1201 113.699C99.1821 113.967 98.1982 113.596 98.0056 113.52Z" fill="#263238"/>
<path d="M86.3578 111.697C88.0916 111.573 87.8714 107.335 87.8714 107.335C87.8714 107.335 90.5133 106.826 91.7586 103.207C91.7586 103.207 95.1986 105.271 98.0401 104.748C102.498 103.881 102.306 98.0675 100.62 96.9048C98.2258 95.2536 94.029 97.751 94.029 97.751C94.029 97.751 87.6168 96.0517 85.773 100.4C84.9452 100.468 84.1739 100.847 83.6146 101.461C83.0554 102.075 82.7498 102.879 82.7596 103.709C82.5945 106.84 85.0712 111.786 86.3578 111.697Z" fill="#263238"/>
<path d="M87.259 107.844C88.5419 107.607 89.7088 106.948 90.5752 105.973C91.0406 105.445 91.3718 104.813 91.5407 104.131C91.7096 103.448 91.7112 102.735 91.5453 102.051C91.5495 102.039 91.5574 102.028 91.5679 102.021C91.5783 102.013 91.5909 102.009 91.6038 102.009C91.6166 102.009 91.6291 102.013 91.6396 102.021C91.6501 102.028 91.658 102.039 91.6622 102.051C91.8681 102.767 91.9132 103.519 91.7943 104.254C91.6753 104.989 91.3953 105.689 90.9742 106.303C90.5536 106.885 89.9884 107.347 89.3344 107.644C88.6804 107.941 87.9603 108.062 87.2453 107.995C87.204 107.961 87.1834 107.858 87.259 107.844Z" fill="#263238"/>
<path d="M93.857 97.9437C94.4095 97.0314 95.2753 96.3515 96.2925 96.0311C97.5294 95.68 98.8522 95.7976 100.008 96.3613C100.467 96.6022 100.856 96.9598 101.133 97.3982C101.411 97.8365 101.569 98.3402 101.59 98.8587C101.604 100.062 101.203 101.233 100.455 102.175C100.455 102.175 100.393 102.175 100.414 102.175C101.011 101.285 101.316 100.232 101.287 99.1615C101.269 98.6519 101.106 98.1581 100.819 97.7369C100.532 97.3157 100.131 96.9843 99.6637 96.781C97.8199 95.9898 95.1367 96.1549 93.9533 98.0331C93.9189 98.0744 93.8157 98.0056 93.857 97.9437Z" fill="#263238"/>
<path d="M87.376 111.539C87.376 111.539 85.2225 108.243 83.7296 109.007C82.2366 109.77 83.7984 114.511 85.4977 115.199C85.7092 115.302 85.9394 115.362 86.1745 115.374C86.4096 115.386 86.6447 115.35 86.8658 115.269C87.0868 115.188 87.2892 115.064 87.4608 114.903C87.6324 114.741 87.7697 114.547 87.8645 114.332L87.376 111.539Z" fill="#AD6359"/>
<path d="M84.1768 110.348C84.1768 110.348 84.1768 110.383 84.1768 110.397C84.7207 110.689 85.1971 111.092 85.5751 111.581C85.9532 112.069 86.2245 112.631 86.3715 113.231C86.3056 113.108 86.2136 113 86.1018 112.916C85.99 112.831 85.8612 112.772 85.7243 112.743C85.5875 112.713 85.4458 112.714 85.3092 112.745C85.1727 112.776 85.0445 112.836 84.9336 112.922C84.9336 112.922 84.9336 112.99 84.9336 112.983C85.1473 112.923 85.3745 112.93 85.584 113.004C85.7935 113.078 85.9749 113.215 86.1032 113.396C86.3167 113.702 86.4966 114.029 86.6398 114.373C86.6948 114.483 86.8875 114.428 86.8531 114.304C86.9494 112.743 85.8211 110.555 84.1768 110.348Z" fill="#263238"/>
<path d="M22.477 323.58H0V319.452H22.477C40.2824 319.452 45.3598 304.213 46.4813 291.43C47.3619 281.419 47.8986 269.228 48.4696 256.342C50.6093 208.058 52.8246 158.13 72.2538 158.13H90.0592V162.258H72.24C56.76 162.258 54.352 216.741 52.5838 256.514C52.0059 269.469 51.4624 281.702 50.5818 291.808C48.793 312.29 38.8101 323.58 22.477 323.58Z" fill="#632240"/>
<path opacity="0.2" d="M90.0592 158.109V162.237H75.8589L74.9783 158.109H90.0592Z" fill="black"/>
<path d="M151.828 186.84H159.41V133.878H151.828V186.84Z" fill="#632240"/>
<path d="M151.828 136.389H123.014V183.779H151.828V136.389Z" fill="#632240"/>
<path opacity="0.2" d="M151.828 136.389V183.779H144.673L141.46 136.389H151.828Z" fill="black"/>
<path d="M79.3677 164.391H100.744V155.949H79.3677V164.391Z" fill="#632240"/>
<path d="M100.744 155.956H79.3677V164.398H100.744V155.956Z" fill="#632240"/>
<path opacity="0.2" d="M93.2378 164.391L93.9395 155.956H100.744V164.391H93.2378Z" fill="black"/>
<path d="M123.014 180.972H104.975C103.853 180.972 102.777 180.526 101.983 179.732C101.19 178.939 100.744 177.863 100.744 176.74V143.964C100.744 142.842 101.19 141.766 101.983 140.972C102.777 140.179 103.853 139.733 104.975 139.733H123.014V180.972Z" fill="#632240"/>
<path opacity="0.2" d="M113.534 180.972L116.747 139.74H123.014V180.972H113.534Z" fill="black"/>
<g opacity="0.2">
<path d="M115.192 172.633H116.616V148.071H115.192V172.633Z" fill="black"/>
<path d="M111.167 172.633H112.591V148.071H111.167V172.633Z" fill="black"/>
<path d="M107.135 172.633H108.56V148.071H107.135V172.633Z" fill="black"/>
</g>
<path d="M78.0536 131.511C77.3656 141.446 76.5813 161.68 80.9707 167.617C86.7293 175.406 102.987 180.132 107.803 181.549C109.867 182.162 114.813 168.477 113.589 166.51C112.364 164.542 95.5838 160.318 94.2629 159.162C92.9419 158.006 88.7589 141.879 86.7706 133.665C84.1974 123.303 78.3357 127.59 78.0536 131.511Z" fill="#AD6359"/>
<path d="M125.987 171.766C128.635 172.399 132.653 171.037 132.784 173.066C132.901 174.869 130.032 175.536 130.032 175.536C130.032 175.536 133.513 175.832 133.087 177.807C132.66 179.781 129.358 179.871 129.358 179.871C129.358 179.871 132.55 180.304 131.979 182.244C131.408 184.185 128.346 184.453 128.346 184.453C128.346 184.453 129.151 185.051 128.133 186.242C126.681 187.948 121.838 187.748 119.341 187.047C116.843 186.345 108.195 181.914 106.881 181.205L111.263 165.106C111.263 165.106 116.293 164.308 118.893 164.212C121.494 164.116 130.142 166.18 129.777 168.34C129.413 170.5 123.324 168.959 121.749 168.904C120.173 168.849 119.898 169.2 120.586 169.778C121.033 170.184 124.81 171.484 125.987 171.766Z" fill="#AD6359"/>
<path d="M129.874 175.502C125.808 176.19 123.909 175.736 120.18 174.126C120.104 174.092 120.042 174.195 120.118 174.236C123.627 176.128 125.932 176.988 129.915 175.688C130.115 175.633 130.073 175.474 129.874 175.502Z" fill="#263238"/>
<path d="M129.516 179.802C125.23 180.112 123.173 179.678 119.141 178.288C119.086 178.288 119.045 178.364 119.1 178.392C122.946 180.077 125.257 180.896 129.502 180.022C129.695 179.988 129.716 179.788 129.516 179.802Z" fill="#263238"/>
<path d="M128.291 184.425C124.115 184.425 121.838 184.04 118.095 182.196C118.078 182.188 118.058 182.186 118.04 182.192C118.021 182.197 118.006 182.209 117.996 182.226C117.986 182.243 117.983 182.262 117.988 182.281C117.992 182.3 118.003 182.316 118.019 182.327C121.652 184.584 124.494 185.079 128.278 184.556C128.532 184.515 128.553 184.425 128.291 184.425Z" fill="#263238"/>
<path d="M95.1091 178.323C95.1091 178.323 81.989 171.732 79.9731 166.682C77.4963 160.38 76.485 142.003 77.4482 132.578C78.4114 123.152 84.9749 124.322 87.0802 132.653C89.1442 140.786 93.8019 157.029 94.2835 157.793C94.8958 158.777 102.381 160.627 102.381 160.627" fill="#455A64"/>
<path d="M93.7951 155.687C93.568 154.91 93.169 153.156 92.9419 152.399C92.481 150.885 92.02 149.365 91.5659 147.851C91.1119 146.338 90.6234 144.817 90.1212 143.31C90.0317 143.056 89.9491 142.794 89.8666 142.54C89.9079 142.375 89.7221 140.379 89.7359 139.891C89.7359 139.815 89.612 139.808 89.6189 139.891C89.6372 140.38 89.6211 140.87 89.5707 141.356C89.5707 141.446 89.5707 141.542 89.5707 141.632C89.2543 140.641 88.9378 139.657 88.6144 138.694C88.6144 138.625 88.4768 138.653 88.4975 138.694C89.1167 140.758 89.4194 142.058 89.8735 143.73C90.3276 145.402 90.7954 146.957 91.2495 148.546C91.7036 150.135 92.2333 151.752 92.7355 153.362C93.0181 154.316 93.3487 155.255 93.7263 156.176C94.0152 156.795 94.029 156.506 93.7951 155.687Z" fill="#263238"/>
<path d="M78.9962 161.24C78.7279 159.54 78.4595 157.8 78.2531 156.121C77.8335 152.681 77.5651 149.296 77.4138 145.856C77.3243 143.888 77.1799 141.934 77.0698 139.974C77.0698 139.954 77.0618 139.934 77.0476 139.92C77.0334 139.906 77.0142 139.898 76.9941 139.898C76.974 139.898 76.9548 139.906 76.9406 139.92C76.9264 139.934 76.9184 139.954 76.9184 139.974C76.9184 141.721 76.8565 143.462 76.9184 145.209C76.9184 145.464 76.9184 145.718 76.9184 145.973L76.8359 145.615C76.5813 144.618 76.2236 143.641 76.0034 142.629C75.9974 142.618 75.9874 142.608 75.9752 142.604C75.9631 142.599 75.9495 142.598 75.937 142.602C75.9246 142.606 75.914 142.615 75.9073 142.626C75.9005 142.637 75.898 142.651 75.9002 142.664C76.1479 143.668 76.2786 144.728 76.5125 145.712C76.6363 146.214 76.7602 146.716 76.8978 147.218L76.9666 147.432C77.0079 148.436 77.056 149.441 77.1248 150.445C77.3114 153.892 77.7089 157.325 78.3151 160.724C78.7307 162.946 79.3314 165.13 80.1108 167.253C80.1147 167.263 80.1217 167.272 80.1309 167.279C80.1401 167.285 80.1511 167.289 80.1623 167.289C80.1736 167.289 80.1846 167.285 80.1938 167.279C80.203 167.272 80.21 167.263 80.2139 167.253C79.808 165.553 79.2714 162.939 78.9962 161.24Z" fill="#263238"/>
<path d="M99.9457 160.621C99.2272 161.856 98.5839 163.133 98.0193 164.446C97.4139 165.739 96.8016 167.033 96.2305 168.34C95.0727 170.914 94.0597 173.551 93.1964 176.238C93.1948 176.253 93.1982 176.268 93.206 176.281C93.2139 176.294 93.2258 176.304 93.2399 176.31C93.254 176.315 93.2695 176.316 93.2841 176.312C93.2986 176.307 93.3113 176.298 93.3203 176.286C94.6 173.741 95.6939 171.092 96.8084 168.471C97.3588 167.177 97.8886 165.87 98.4321 164.577C98.9756 163.283 99.5948 161.983 100.015 160.648C100.028 160.607 99.9664 160.586 99.9457 160.621Z" fill="#263238"/>
<path d="M172.11 125.016C172.019 125.016 171.931 124.98 171.867 124.916C171.802 124.851 171.766 124.764 171.766 124.672V114.992C171.766 114.901 171.802 114.814 171.867 114.749C171.931 114.685 172.019 114.648 172.11 114.648C172.201 114.648 172.289 114.685 172.353 114.749C172.418 114.814 172.454 114.901 172.454 114.992V124.672C172.454 124.764 172.418 124.851 172.353 124.916C172.289 124.98 172.201 125.016 172.11 125.016Z" fill="#263238"/>
<path d="M154.594 129.654C154.533 129.654 154.472 129.638 154.419 129.608C154.366 129.578 154.322 129.534 154.291 129.482L149.475 121.095C149.447 121.056 149.427 121.012 149.417 120.964C149.407 120.917 149.407 120.869 149.416 120.822C149.426 120.775 149.446 120.73 149.474 120.691C149.502 120.652 149.539 120.619 149.58 120.595C149.622 120.571 149.668 120.556 149.716 120.551C149.764 120.545 149.812 120.55 149.858 120.565C149.904 120.58 149.946 120.604 149.982 120.636C150.018 120.668 150.047 120.707 150.067 120.751L154.883 129.138C154.906 129.176 154.921 129.219 154.927 129.264C154.934 129.309 154.931 129.354 154.92 129.398C154.908 129.441 154.888 129.482 154.86 129.518C154.833 129.554 154.798 129.583 154.759 129.605C154.709 129.636 154.652 129.653 154.594 129.654Z" fill="#263238"/>
<path d="M149.557 198.674C149.497 198.674 149.437 198.657 149.385 198.626C149.347 198.601 149.314 198.568 149.288 198.53C149.263 198.492 149.245 198.449 149.237 198.404C149.229 198.359 149.23 198.313 149.24 198.268C149.25 198.223 149.269 198.181 149.296 198.144L154.112 189.764C154.135 189.725 154.165 189.69 154.201 189.663C154.236 189.635 154.277 189.615 154.321 189.603C154.365 189.591 154.411 189.588 154.456 189.594C154.501 189.6 154.544 189.614 154.583 189.637C154.623 189.659 154.657 189.69 154.685 189.725C154.712 189.761 154.733 189.802 154.744 189.846C154.756 189.89 154.759 189.936 154.754 189.98C154.748 190.025 154.733 190.069 154.711 190.108L149.895 198.488C149.863 198.549 149.814 198.599 149.754 198.632C149.694 198.666 149.626 198.68 149.557 198.674Z" fill="#263238"/>
<path d="M171.89 204.714C171.799 204.714 171.711 204.678 171.647 204.614C171.582 204.549 171.546 204.462 171.546 204.37V194.704C171.546 194.613 171.582 194.525 171.647 194.461C171.711 194.396 171.799 194.36 171.89 194.36C171.981 194.362 172.067 194.399 172.131 194.463C172.195 194.527 172.232 194.613 172.234 194.704V204.384C172.23 204.473 172.193 204.557 172.128 204.619C172.064 204.68 171.979 204.714 171.89 204.714Z" fill="#263238"/>
<path d="M194.25 198.784C194.19 198.784 194.131 198.767 194.079 198.737C194.027 198.707 193.984 198.664 193.954 198.612L189.138 190.232C189.115 190.193 189.101 190.149 189.095 190.104C189.089 190.059 189.092 190.014 189.104 189.97C189.116 189.926 189.136 189.885 189.164 189.849C189.192 189.813 189.226 189.783 189.265 189.761C189.305 189.738 189.348 189.724 189.393 189.718C189.438 189.712 189.484 189.715 189.527 189.727C189.571 189.739 189.612 189.759 189.648 189.787C189.684 189.814 189.714 189.849 189.737 189.888L194.553 198.268C194.576 198.307 194.591 198.349 194.598 198.394C194.604 198.439 194.601 198.484 194.59 198.528C194.578 198.572 194.558 198.612 194.53 198.648C194.503 198.684 194.468 198.714 194.429 198.736C194.375 198.769 194.313 198.786 194.25 198.784Z" fill="#263238"/>
<path d="M189.599 129.764C189.538 129.764 189.479 129.747 189.427 129.715C189.388 129.693 189.353 129.664 189.325 129.628C189.298 129.592 189.278 129.551 189.266 129.508C189.255 129.464 189.252 129.419 189.258 129.374C189.265 129.329 189.28 129.286 189.303 129.248L194.119 120.861C194.169 120.792 194.243 120.744 194.326 120.727C194.41 120.709 194.497 120.723 194.57 120.766C194.644 120.809 194.699 120.877 194.725 120.958C194.751 121.039 194.746 121.127 194.711 121.205L189.895 129.592C189.864 129.643 189.821 129.685 189.769 129.715C189.717 129.745 189.659 129.762 189.599 129.764Z" fill="#263238"/>
</svg>
